M48
; DRILL file {KiCad (5.1.4-0-10_14)} date Sunday, October 20, 2019 at 08:34:46 PM
; FORMAT={-:-/ absolute / inch / decimal}
; #@! TF.CreationDate,2019-10-20T20:34:46-03:00
; #@! TF.GenerationSoftware,Kicad,Pcbnew,(5.1.4-0-10_14)
; #@! TF.FileFunction,Plated,1,2,PTH
FMAT,2
INCH
T1C0.0276
T2C0.0315
T3C0.0394
T4C0.0400
%
G90
G05
T1
X5.15Y-3.7
X5.45Y-3.7
X6.4Y-3.7
X6.7Y-3.7
T2
X6.45Y-3.95
X6.6421Y-3.95
X5.2Y-3.95
X5.3921Y-3.95
X6.4Y-2.8
X6.4Y-2.9
X6.4Y-3.0
X6.4Y-3.1
X6.4Y-3.2
X6.4Y-3.3
X6.4Y-3.4
X6.7Y-2.8
X6.7Y-2.9
X6.7Y-3.0
X6.7Y-3.1
X6.7Y-3.2
X6.7Y-3.3
X6.7Y-3.4
X5.4016Y-4.2
X5.5Y-4.2
X5.1016Y-4.2
X5.15Y-2.8
X5.15Y-2.9
X5.15Y-3.0
X5.15Y-3.1
X5.15Y-3.2
X5.15Y-3.3
X5.15Y-3.4
X5.45Y-2.8
X5.45Y-2.9
X5.45Y-3.0
X5.45Y-3.1
X5.45Y-3.2
X5.45Y-3.3
X5.45Y-3.4
X5.2Y-4.2
X6.6516Y-4.2
X6.75Y-4.2
X6.3516Y-4.2
X6.45Y-4.2
T3
X4.65Y-3.1
X4.65Y-3.2
X4.65Y-3.3
X4.65Y-3.4
X4.5Y-2.6
X4.5Y-2.7
X4.5Y-2.8
X4.6Y-2.5
X4.6Y-2.6
X4.6Y-2.7
X4.6Y-2.8
X6.95Y-2.65
X6.95Y-2.75
X6.95Y-2.85
X5.95Y-3.1
X5.95Y-3.2
X5.95Y-3.3
X5.95Y-3.4
X4.5Y-2.5
T4
X5.1557Y-2.5087
X5.2557Y-2.5087
X5.3557Y-2.5087
X5.4557Y-2.5087
X5.5157Y-4.4087
X5.5557Y-2.5087
X5.6157Y-4.4087
X5.6557Y-2.5087
X5.7157Y-4.4087
X5.7557Y-2.5087
X5.8157Y-4.4087
X5.8557Y-2.5087
X5.9157Y-4.4087
X5.9557Y-2.5087
X6.0157Y-4.4087
X6.0557Y-2.5087
X6.1157Y-4.4087
X6.2157Y-2.5087
X6.2157Y-4.4087
X6.3157Y-2.5087
X6.4157Y-2.5087
X6.4157Y-4.4087
X6.5157Y-2.5087
X6.5157Y-4.4087
X6.6157Y-2.5087
X6.6157Y-4.4087
X6.7157Y-2.5087
X6.7157Y-4.4087
X6.8157Y-2.5087
X6.8157Y-4.4087
X6.9157Y-2.5087
X6.9157Y-4.4087
X6.9207Y-3.3087
X6.9207Y-3.4087
X6.9207Y-3.5087
X7.0207Y-3.3087
X7.0207Y-3.4087
X7.0207Y-3.5087
T0
M30
