G04 #@! TF.GenerationSoftware,KiCad,Pcbnew,(5.1.4-0-10_14)*
G04 #@! TF.CreationDate,2019-10-20T20:35:26-03:00*
G04 #@! TF.ProjectId,shield,73686965-6c64-42e6-9b69-6361645f7063,rev?*
G04 #@! TF.SameCoordinates,Original*
G04 #@! TF.FileFunction,Soldermask,Top*
G04 #@! TF.FilePolarity,Negative*
%FSLAX46Y46*%
G04 Gerber Fmt 4.6, Leading zero omitted, Abs format (unit mm)*
G04 Created by KiCad (PCBNEW (5.1.4-0-10_14)) date 2019-10-20 20:35:26*
%MOMM*%
%LPD*%
G04 APERTURE LIST*
%ADD10C,0.100000*%
G04 APERTURE END LIST*
D10*
G36*
X126505256Y-110371298D02*
G01*
X126611579Y-110392447D01*
X126912042Y-110516903D01*
X127182451Y-110697585D01*
X127412415Y-110927549D01*
X127593097Y-111197958D01*
X127593098Y-111197960D01*
X127717553Y-111498422D01*
X127781000Y-111817389D01*
X127781000Y-112142611D01*
X127717553Y-112461578D01*
X127600512Y-112744142D01*
X127593097Y-112762042D01*
X127412415Y-113032451D01*
X127182451Y-113262415D01*
X126912042Y-113443097D01*
X126611579Y-113567553D01*
X126505256Y-113588702D01*
X126292611Y-113631000D01*
X125967389Y-113631000D01*
X125754744Y-113588702D01*
X125648421Y-113567553D01*
X125347958Y-113443097D01*
X125077549Y-113262415D01*
X124847585Y-113032451D01*
X124666903Y-112762042D01*
X124659489Y-112744142D01*
X124542447Y-112461578D01*
X124479000Y-112142611D01*
X124479000Y-111817389D01*
X124542447Y-111498422D01*
X124666902Y-111197960D01*
X124666903Y-111197958D01*
X124847585Y-110927549D01*
X125077549Y-110697585D01*
X125347958Y-110516903D01*
X125648421Y-110392447D01*
X125754744Y-110371298D01*
X125967389Y-110329000D01*
X126292611Y-110329000D01*
X126505256Y-110371298D01*
X126505256Y-110371298D01*
G37*
G36*
X173299294Y-111078633D02*
G01*
X173471695Y-111130931D01*
X173630583Y-111215858D01*
X173769849Y-111330151D01*
X173884142Y-111469417D01*
X173969069Y-111628305D01*
X174021367Y-111800706D01*
X174039025Y-111980000D01*
X174021367Y-112159294D01*
X173969069Y-112331695D01*
X173884142Y-112490583D01*
X173769849Y-112629849D01*
X173630583Y-112744142D01*
X173471695Y-112829069D01*
X173299294Y-112881367D01*
X173164931Y-112894600D01*
X173075069Y-112894600D01*
X172940706Y-112881367D01*
X172768305Y-112829069D01*
X172609417Y-112744142D01*
X172470151Y-112629849D01*
X172355858Y-112490583D01*
X172270931Y-112331695D01*
X172218633Y-112159294D01*
X172200975Y-111980000D01*
X172218633Y-111800706D01*
X172270931Y-111628305D01*
X172355858Y-111469417D01*
X172470151Y-111330151D01*
X172609417Y-111215858D01*
X172768305Y-111130931D01*
X172940706Y-111078633D01*
X173075069Y-111065400D01*
X173164931Y-111065400D01*
X173299294Y-111078633D01*
X173299294Y-111078633D01*
G37*
G36*
X170759294Y-111078633D02*
G01*
X170931695Y-111130931D01*
X171090583Y-111215858D01*
X171229849Y-111330151D01*
X171344142Y-111469417D01*
X171429069Y-111628305D01*
X171481367Y-111800706D01*
X171499025Y-111980000D01*
X171481367Y-112159294D01*
X171429069Y-112331695D01*
X171344142Y-112490583D01*
X171229849Y-112629849D01*
X171090583Y-112744142D01*
X170931695Y-112829069D01*
X170759294Y-112881367D01*
X170624931Y-112894600D01*
X170535069Y-112894600D01*
X170400706Y-112881367D01*
X170228305Y-112829069D01*
X170069417Y-112744142D01*
X169930151Y-112629849D01*
X169815858Y-112490583D01*
X169730931Y-112331695D01*
X169678633Y-112159294D01*
X169660975Y-111980000D01*
X169678633Y-111800706D01*
X169730931Y-111628305D01*
X169815858Y-111469417D01*
X169930151Y-111330151D01*
X170069417Y-111215858D01*
X170228305Y-111130931D01*
X170400706Y-111078633D01*
X170535069Y-111065400D01*
X170624931Y-111065400D01*
X170759294Y-111078633D01*
X170759294Y-111078633D01*
G37*
G36*
X168219294Y-111078633D02*
G01*
X168391695Y-111130931D01*
X168550583Y-111215858D01*
X168689849Y-111330151D01*
X168804142Y-111469417D01*
X168889069Y-111628305D01*
X168941367Y-111800706D01*
X168959025Y-111980000D01*
X168941367Y-112159294D01*
X168889069Y-112331695D01*
X168804142Y-112490583D01*
X168689849Y-112629849D01*
X168550583Y-112744142D01*
X168391695Y-112829069D01*
X168219294Y-112881367D01*
X168084931Y-112894600D01*
X167995069Y-112894600D01*
X167860706Y-112881367D01*
X167688305Y-112829069D01*
X167529417Y-112744142D01*
X167390151Y-112629849D01*
X167275858Y-112490583D01*
X167190931Y-112331695D01*
X167138633Y-112159294D01*
X167120975Y-111980000D01*
X167138633Y-111800706D01*
X167190931Y-111628305D01*
X167275858Y-111469417D01*
X167390151Y-111330151D01*
X167529417Y-111215858D01*
X167688305Y-111130931D01*
X167860706Y-111078633D01*
X167995069Y-111065400D01*
X168084931Y-111065400D01*
X168219294Y-111078633D01*
X168219294Y-111078633D01*
G37*
G36*
X165679294Y-111078633D02*
G01*
X165851695Y-111130931D01*
X166010583Y-111215858D01*
X166149849Y-111330151D01*
X166264142Y-111469417D01*
X166349069Y-111628305D01*
X166401367Y-111800706D01*
X166419025Y-111980000D01*
X166401367Y-112159294D01*
X166349069Y-112331695D01*
X166264142Y-112490583D01*
X166149849Y-112629849D01*
X166010583Y-112744142D01*
X165851695Y-112829069D01*
X165679294Y-112881367D01*
X165544931Y-112894600D01*
X165455069Y-112894600D01*
X165320706Y-112881367D01*
X165148305Y-112829069D01*
X164989417Y-112744142D01*
X164850151Y-112629849D01*
X164735858Y-112490583D01*
X164650931Y-112331695D01*
X164598633Y-112159294D01*
X164580975Y-111980000D01*
X164598633Y-111800706D01*
X164650931Y-111628305D01*
X164735858Y-111469417D01*
X164850151Y-111330151D01*
X164989417Y-111215858D01*
X165148305Y-111130931D01*
X165320706Y-111078633D01*
X165455069Y-111065400D01*
X165544931Y-111065400D01*
X165679294Y-111078633D01*
X165679294Y-111078633D01*
G37*
G36*
X163139294Y-111078633D02*
G01*
X163311695Y-111130931D01*
X163470583Y-111215858D01*
X163609849Y-111330151D01*
X163724142Y-111469417D01*
X163809069Y-111628305D01*
X163861367Y-111800706D01*
X163879025Y-111980000D01*
X163861367Y-112159294D01*
X163809069Y-112331695D01*
X163724142Y-112490583D01*
X163609849Y-112629849D01*
X163470583Y-112744142D01*
X163311695Y-112829069D01*
X163139294Y-112881367D01*
X163004931Y-112894600D01*
X162915069Y-112894600D01*
X162780706Y-112881367D01*
X162608305Y-112829069D01*
X162449417Y-112744142D01*
X162310151Y-112629849D01*
X162195858Y-112490583D01*
X162110931Y-112331695D01*
X162058633Y-112159294D01*
X162040975Y-111980000D01*
X162058633Y-111800706D01*
X162110931Y-111628305D01*
X162195858Y-111469417D01*
X162310151Y-111330151D01*
X162449417Y-111215858D01*
X162608305Y-111130931D01*
X162780706Y-111078633D01*
X162915069Y-111065400D01*
X163004931Y-111065400D01*
X163139294Y-111078633D01*
X163139294Y-111078633D01*
G37*
G36*
X158059294Y-111078633D02*
G01*
X158231695Y-111130931D01*
X158390583Y-111215858D01*
X158529849Y-111330151D01*
X158644142Y-111469417D01*
X158729069Y-111628305D01*
X158781367Y-111800706D01*
X158799025Y-111980000D01*
X158781367Y-112159294D01*
X158729069Y-112331695D01*
X158644142Y-112490583D01*
X158529849Y-112629849D01*
X158390583Y-112744142D01*
X158231695Y-112829069D01*
X158059294Y-112881367D01*
X157924931Y-112894600D01*
X157835069Y-112894600D01*
X157700706Y-112881367D01*
X157528305Y-112829069D01*
X157369417Y-112744142D01*
X157230151Y-112629849D01*
X157115858Y-112490583D01*
X157030931Y-112331695D01*
X156978633Y-112159294D01*
X156960975Y-111980000D01*
X156978633Y-111800706D01*
X157030931Y-111628305D01*
X157115858Y-111469417D01*
X157230151Y-111330151D01*
X157369417Y-111215858D01*
X157528305Y-111130931D01*
X157700706Y-111078633D01*
X157835069Y-111065400D01*
X157924931Y-111065400D01*
X158059294Y-111078633D01*
X158059294Y-111078633D01*
G37*
G36*
X155519294Y-111078633D02*
G01*
X155691695Y-111130931D01*
X155850583Y-111215858D01*
X155989849Y-111330151D01*
X156104142Y-111469417D01*
X156189069Y-111628305D01*
X156241367Y-111800706D01*
X156259025Y-111980000D01*
X156241367Y-112159294D01*
X156189069Y-112331695D01*
X156104142Y-112490583D01*
X155989849Y-112629849D01*
X155850583Y-112744142D01*
X155691695Y-112829069D01*
X155519294Y-112881367D01*
X155384931Y-112894600D01*
X155295069Y-112894600D01*
X155160706Y-112881367D01*
X154988305Y-112829069D01*
X154829417Y-112744142D01*
X154690151Y-112629849D01*
X154575858Y-112490583D01*
X154490931Y-112331695D01*
X154438633Y-112159294D01*
X154420975Y-111980000D01*
X154438633Y-111800706D01*
X154490931Y-111628305D01*
X154575858Y-111469417D01*
X154690151Y-111330151D01*
X154829417Y-111215858D01*
X154988305Y-111130931D01*
X155160706Y-111078633D01*
X155295069Y-111065400D01*
X155384931Y-111065400D01*
X155519294Y-111078633D01*
X155519294Y-111078633D01*
G37*
G36*
X152979294Y-111078633D02*
G01*
X153151695Y-111130931D01*
X153310583Y-111215858D01*
X153449849Y-111330151D01*
X153564142Y-111469417D01*
X153649069Y-111628305D01*
X153701367Y-111800706D01*
X153719025Y-111980000D01*
X153701367Y-112159294D01*
X153649069Y-112331695D01*
X153564142Y-112490583D01*
X153449849Y-112629849D01*
X153310583Y-112744142D01*
X153151695Y-112829069D01*
X152979294Y-112881367D01*
X152844931Y-112894600D01*
X152755069Y-112894600D01*
X152620706Y-112881367D01*
X152448305Y-112829069D01*
X152289417Y-112744142D01*
X152150151Y-112629849D01*
X152035858Y-112490583D01*
X151950931Y-112331695D01*
X151898633Y-112159294D01*
X151880975Y-111980000D01*
X151898633Y-111800706D01*
X151950931Y-111628305D01*
X152035858Y-111469417D01*
X152150151Y-111330151D01*
X152289417Y-111215858D01*
X152448305Y-111130931D01*
X152620706Y-111078633D01*
X152755069Y-111065400D01*
X152844931Y-111065400D01*
X152979294Y-111078633D01*
X152979294Y-111078633D01*
G37*
G36*
X150439294Y-111078633D02*
G01*
X150611695Y-111130931D01*
X150770583Y-111215858D01*
X150909849Y-111330151D01*
X151024142Y-111469417D01*
X151109069Y-111628305D01*
X151161367Y-111800706D01*
X151179025Y-111980000D01*
X151161367Y-112159294D01*
X151109069Y-112331695D01*
X151024142Y-112490583D01*
X150909849Y-112629849D01*
X150770583Y-112744142D01*
X150611695Y-112829069D01*
X150439294Y-112881367D01*
X150304931Y-112894600D01*
X150215069Y-112894600D01*
X150080706Y-112881367D01*
X149908305Y-112829069D01*
X149749417Y-112744142D01*
X149610151Y-112629849D01*
X149495858Y-112490583D01*
X149410931Y-112331695D01*
X149358633Y-112159294D01*
X149340975Y-111980000D01*
X149358633Y-111800706D01*
X149410931Y-111628305D01*
X149495858Y-111469417D01*
X149610151Y-111330151D01*
X149749417Y-111215858D01*
X149908305Y-111130931D01*
X150080706Y-111078633D01*
X150215069Y-111065400D01*
X150304931Y-111065400D01*
X150439294Y-111078633D01*
X150439294Y-111078633D01*
G37*
G36*
X147899294Y-111078633D02*
G01*
X148071695Y-111130931D01*
X148230583Y-111215858D01*
X148369849Y-111330151D01*
X148484142Y-111469417D01*
X148569069Y-111628305D01*
X148621367Y-111800706D01*
X148639025Y-111980000D01*
X148621367Y-112159294D01*
X148569069Y-112331695D01*
X148484142Y-112490583D01*
X148369849Y-112629849D01*
X148230583Y-112744142D01*
X148071695Y-112829069D01*
X147899294Y-112881367D01*
X147764931Y-112894600D01*
X147675069Y-112894600D01*
X147540706Y-112881367D01*
X147368305Y-112829069D01*
X147209417Y-112744142D01*
X147070151Y-112629849D01*
X146955858Y-112490583D01*
X146870931Y-112331695D01*
X146818633Y-112159294D01*
X146800975Y-111980000D01*
X146818633Y-111800706D01*
X146870931Y-111628305D01*
X146955858Y-111469417D01*
X147070151Y-111330151D01*
X147209417Y-111215858D01*
X147368305Y-111130931D01*
X147540706Y-111078633D01*
X147675069Y-111065400D01*
X147764931Y-111065400D01*
X147899294Y-111078633D01*
X147899294Y-111078633D01*
G37*
G36*
X145359294Y-111078633D02*
G01*
X145531695Y-111130931D01*
X145690583Y-111215858D01*
X145829849Y-111330151D01*
X145944142Y-111469417D01*
X146029069Y-111628305D01*
X146081367Y-111800706D01*
X146099025Y-111980000D01*
X146081367Y-112159294D01*
X146029069Y-112331695D01*
X145944142Y-112490583D01*
X145829849Y-112629849D01*
X145690583Y-112744142D01*
X145531695Y-112829069D01*
X145359294Y-112881367D01*
X145224931Y-112894600D01*
X145135069Y-112894600D01*
X145000706Y-112881367D01*
X144828305Y-112829069D01*
X144669417Y-112744142D01*
X144530151Y-112629849D01*
X144415858Y-112490583D01*
X144330931Y-112331695D01*
X144278633Y-112159294D01*
X144260975Y-111980000D01*
X144278633Y-111800706D01*
X144330931Y-111628305D01*
X144415858Y-111469417D01*
X144530151Y-111330151D01*
X144669417Y-111215858D01*
X144828305Y-111130931D01*
X145000706Y-111078633D01*
X145135069Y-111065400D01*
X145224931Y-111065400D01*
X145359294Y-111078633D01*
X145359294Y-111078633D01*
G37*
G36*
X142819294Y-111078633D02*
G01*
X142991695Y-111130931D01*
X143150583Y-111215858D01*
X143289849Y-111330151D01*
X143404142Y-111469417D01*
X143489069Y-111628305D01*
X143541367Y-111800706D01*
X143559025Y-111980000D01*
X143541367Y-112159294D01*
X143489069Y-112331695D01*
X143404142Y-112490583D01*
X143289849Y-112629849D01*
X143150583Y-112744142D01*
X142991695Y-112829069D01*
X142819294Y-112881367D01*
X142684931Y-112894600D01*
X142595069Y-112894600D01*
X142460706Y-112881367D01*
X142288305Y-112829069D01*
X142129417Y-112744142D01*
X141990151Y-112629849D01*
X141875858Y-112490583D01*
X141790931Y-112331695D01*
X141738633Y-112159294D01*
X141720975Y-111980000D01*
X141738633Y-111800706D01*
X141790931Y-111628305D01*
X141875858Y-111469417D01*
X141990151Y-111330151D01*
X142129417Y-111215858D01*
X142288305Y-111130931D01*
X142460706Y-111078633D01*
X142595069Y-111065400D01*
X142684931Y-111065400D01*
X142819294Y-111078633D01*
X142819294Y-111078633D01*
G37*
G36*
X140279294Y-111078633D02*
G01*
X140451695Y-111130931D01*
X140610583Y-111215858D01*
X140749849Y-111330151D01*
X140864142Y-111469417D01*
X140949069Y-111628305D01*
X141001367Y-111800706D01*
X141019025Y-111980000D01*
X141001367Y-112159294D01*
X140949069Y-112331695D01*
X140864142Y-112490583D01*
X140749849Y-112629849D01*
X140610583Y-112744142D01*
X140451695Y-112829069D01*
X140279294Y-112881367D01*
X140144931Y-112894600D01*
X140055069Y-112894600D01*
X139920706Y-112881367D01*
X139748305Y-112829069D01*
X139589417Y-112744142D01*
X139450151Y-112629849D01*
X139335858Y-112490583D01*
X139250931Y-112331695D01*
X139198633Y-112159294D01*
X139180975Y-111980000D01*
X139198633Y-111800706D01*
X139250931Y-111628305D01*
X139335858Y-111469417D01*
X139450151Y-111330151D01*
X139589417Y-111215858D01*
X139748305Y-111130931D01*
X139920706Y-111078633D01*
X140055069Y-111065400D01*
X140144931Y-111065400D01*
X140279294Y-111078633D01*
X140279294Y-111078633D01*
G37*
G36*
X175839294Y-111078633D02*
G01*
X176011695Y-111130931D01*
X176170583Y-111215858D01*
X176309849Y-111330151D01*
X176424142Y-111469417D01*
X176509069Y-111628305D01*
X176561367Y-111800706D01*
X176579025Y-111980000D01*
X176561367Y-112159294D01*
X176509069Y-112331695D01*
X176424142Y-112490583D01*
X176309849Y-112629849D01*
X176170583Y-112744142D01*
X176011695Y-112829069D01*
X175839294Y-112881367D01*
X175704931Y-112894600D01*
X175615069Y-112894600D01*
X175480706Y-112881367D01*
X175308305Y-112829069D01*
X175149417Y-112744142D01*
X175010151Y-112629849D01*
X174895858Y-112490583D01*
X174810931Y-112331695D01*
X174758633Y-112159294D01*
X174740975Y-111980000D01*
X174758633Y-111800706D01*
X174810931Y-111628305D01*
X174895858Y-111469417D01*
X175010151Y-111330151D01*
X175149417Y-111215858D01*
X175308305Y-111130931D01*
X175480706Y-111078633D01*
X175615069Y-111065400D01*
X175704931Y-111065400D01*
X175839294Y-111078633D01*
X175839294Y-111078633D01*
G37*
G36*
X178575256Y-105291298D02*
G01*
X178681579Y-105312447D01*
X178982042Y-105436903D01*
X179252451Y-105617585D01*
X179482415Y-105847549D01*
X179534736Y-105925853D01*
X179663098Y-106117960D01*
X179787553Y-106418422D01*
X179822913Y-106596185D01*
X179851000Y-106737391D01*
X179851000Y-107062609D01*
X179787553Y-107381579D01*
X179663097Y-107682042D01*
X179482415Y-107952451D01*
X179252451Y-108182415D01*
X178982042Y-108363097D01*
X178681579Y-108487553D01*
X178575256Y-108508702D01*
X178362611Y-108551000D01*
X178037389Y-108551000D01*
X177824744Y-108508702D01*
X177718421Y-108487553D01*
X177417958Y-108363097D01*
X177147549Y-108182415D01*
X176917585Y-107952451D01*
X176736903Y-107682042D01*
X176612447Y-107381579D01*
X176549000Y-107062609D01*
X176549000Y-106737391D01*
X176577088Y-106596185D01*
X176612447Y-106418422D01*
X176736902Y-106117960D01*
X176865264Y-105925853D01*
X176917585Y-105847549D01*
X177147549Y-105617585D01*
X177417958Y-105436903D01*
X177718421Y-105312447D01*
X177824744Y-105291298D01*
X178037389Y-105249000D01*
X178362611Y-105249000D01*
X178575256Y-105291298D01*
X178575256Y-105291298D01*
G37*
G36*
X129828228Y-105861703D02*
G01*
X129983100Y-105925853D01*
X130122481Y-106018985D01*
X130241015Y-106137519D01*
X130334147Y-106276900D01*
X130398297Y-106431772D01*
X130431000Y-106596184D01*
X130431000Y-106763816D01*
X130398297Y-106928228D01*
X130334147Y-107083100D01*
X130241015Y-107222481D01*
X130122481Y-107341015D01*
X129983100Y-107434147D01*
X129828228Y-107498297D01*
X129663816Y-107531000D01*
X129496184Y-107531000D01*
X129331772Y-107498297D01*
X129176900Y-107434147D01*
X129037519Y-107341015D01*
X128918985Y-107222481D01*
X128825853Y-107083100D01*
X128761703Y-106928228D01*
X128729000Y-106763816D01*
X128729000Y-106596184D01*
X128761703Y-106431772D01*
X128825853Y-106276900D01*
X128918985Y-106137519D01*
X129037519Y-106018985D01*
X129176900Y-105925853D01*
X129331772Y-105861703D01*
X129496184Y-105829000D01*
X129663816Y-105829000D01*
X129828228Y-105861703D01*
X129828228Y-105861703D01*
G37*
G36*
X132328228Y-105861703D02*
G01*
X132483100Y-105925853D01*
X132622481Y-106018985D01*
X132741015Y-106137519D01*
X132834147Y-106276900D01*
X132898297Y-106431772D01*
X132931000Y-106596184D01*
X132931000Y-106763816D01*
X132898297Y-106928228D01*
X132834147Y-107083100D01*
X132741015Y-107222481D01*
X132622481Y-107341015D01*
X132483100Y-107434147D01*
X132328228Y-107498297D01*
X132163816Y-107531000D01*
X131996184Y-107531000D01*
X131831772Y-107498297D01*
X131676900Y-107434147D01*
X131537519Y-107341015D01*
X131418985Y-107222481D01*
X131325853Y-107083100D01*
X131261703Y-106928228D01*
X131229000Y-106763816D01*
X131229000Y-106596184D01*
X131261703Y-106431772D01*
X131325853Y-106276900D01*
X131418985Y-106137519D01*
X131537519Y-106018985D01*
X131676900Y-105925853D01*
X131831772Y-105861703D01*
X131996184Y-105829000D01*
X132163816Y-105829000D01*
X132328228Y-105861703D01*
X132328228Y-105861703D01*
G37*
G36*
X137448228Y-105861703D02*
G01*
X137603100Y-105925853D01*
X137742481Y-106018985D01*
X137861015Y-106137519D01*
X137954147Y-106276900D01*
X138018297Y-106431772D01*
X138051000Y-106596184D01*
X138051000Y-106763816D01*
X138018297Y-106928228D01*
X137954147Y-107083100D01*
X137861015Y-107222481D01*
X137742481Y-107341015D01*
X137603100Y-107434147D01*
X137448228Y-107498297D01*
X137283816Y-107531000D01*
X137116184Y-107531000D01*
X136951772Y-107498297D01*
X136796900Y-107434147D01*
X136657519Y-107341015D01*
X136538985Y-107222481D01*
X136445853Y-107083100D01*
X136381703Y-106928228D01*
X136349000Y-106763816D01*
X136349000Y-106596184D01*
X136381703Y-106431772D01*
X136445853Y-106276900D01*
X136538985Y-106137519D01*
X136657519Y-106018985D01*
X136796900Y-105925853D01*
X136951772Y-105861703D01*
X137116184Y-105829000D01*
X137283816Y-105829000D01*
X137448228Y-105861703D01*
X137448228Y-105861703D01*
G37*
G36*
X139948228Y-105861703D02*
G01*
X140103100Y-105925853D01*
X140242481Y-106018985D01*
X140361015Y-106137519D01*
X140454147Y-106276900D01*
X140518297Y-106431772D01*
X140551000Y-106596184D01*
X140551000Y-106763816D01*
X140518297Y-106928228D01*
X140454147Y-107083100D01*
X140361015Y-107222481D01*
X140242481Y-107341015D01*
X140103100Y-107434147D01*
X139948228Y-107498297D01*
X139783816Y-107531000D01*
X139616184Y-107531000D01*
X139451772Y-107498297D01*
X139296900Y-107434147D01*
X139157519Y-107341015D01*
X139038985Y-107222481D01*
X138945853Y-107083100D01*
X138881703Y-106928228D01*
X138849000Y-106763816D01*
X138849000Y-106596184D01*
X138881703Y-106431772D01*
X138945853Y-106276900D01*
X139038985Y-106137519D01*
X139157519Y-106018985D01*
X139296900Y-105925853D01*
X139451772Y-105861703D01*
X139616184Y-105829000D01*
X139783816Y-105829000D01*
X139948228Y-105861703D01*
X139948228Y-105861703D01*
G37*
G36*
X161578228Y-105861703D02*
G01*
X161733100Y-105925853D01*
X161872481Y-106018985D01*
X161991015Y-106137519D01*
X162084147Y-106276900D01*
X162148297Y-106431772D01*
X162181000Y-106596184D01*
X162181000Y-106763816D01*
X162148297Y-106928228D01*
X162084147Y-107083100D01*
X161991015Y-107222481D01*
X161872481Y-107341015D01*
X161733100Y-107434147D01*
X161578228Y-107498297D01*
X161413816Y-107531000D01*
X161246184Y-107531000D01*
X161081772Y-107498297D01*
X160926900Y-107434147D01*
X160787519Y-107341015D01*
X160668985Y-107222481D01*
X160575853Y-107083100D01*
X160511703Y-106928228D01*
X160479000Y-106763816D01*
X160479000Y-106596184D01*
X160511703Y-106431772D01*
X160575853Y-106276900D01*
X160668985Y-106137519D01*
X160787519Y-106018985D01*
X160926900Y-105925853D01*
X161081772Y-105861703D01*
X161246184Y-105829000D01*
X161413816Y-105829000D01*
X161578228Y-105861703D01*
X161578228Y-105861703D01*
G37*
G36*
X164078228Y-105861703D02*
G01*
X164233100Y-105925853D01*
X164372481Y-106018985D01*
X164491015Y-106137519D01*
X164584147Y-106276900D01*
X164648297Y-106431772D01*
X164681000Y-106596184D01*
X164681000Y-106763816D01*
X164648297Y-106928228D01*
X164584147Y-107083100D01*
X164491015Y-107222481D01*
X164372481Y-107341015D01*
X164233100Y-107434147D01*
X164078228Y-107498297D01*
X163913816Y-107531000D01*
X163746184Y-107531000D01*
X163581772Y-107498297D01*
X163426900Y-107434147D01*
X163287519Y-107341015D01*
X163168985Y-107222481D01*
X163075853Y-107083100D01*
X163011703Y-106928228D01*
X162979000Y-106763816D01*
X162979000Y-106596184D01*
X163011703Y-106431772D01*
X163075853Y-106276900D01*
X163168985Y-106137519D01*
X163287519Y-106018985D01*
X163426900Y-105925853D01*
X163581772Y-105861703D01*
X163746184Y-105829000D01*
X163913816Y-105829000D01*
X164078228Y-105861703D01*
X164078228Y-105861703D01*
G37*
G36*
X169198228Y-105861703D02*
G01*
X169353100Y-105925853D01*
X169492481Y-106018985D01*
X169611015Y-106137519D01*
X169704147Y-106276900D01*
X169768297Y-106431772D01*
X169801000Y-106596184D01*
X169801000Y-106763816D01*
X169768297Y-106928228D01*
X169704147Y-107083100D01*
X169611015Y-107222481D01*
X169492481Y-107341015D01*
X169353100Y-107434147D01*
X169198228Y-107498297D01*
X169033816Y-107531000D01*
X168866184Y-107531000D01*
X168701772Y-107498297D01*
X168546900Y-107434147D01*
X168407519Y-107341015D01*
X168288985Y-107222481D01*
X168195853Y-107083100D01*
X168131703Y-106928228D01*
X168099000Y-106763816D01*
X168099000Y-106596184D01*
X168131703Y-106431772D01*
X168195853Y-106276900D01*
X168288985Y-106137519D01*
X168407519Y-106018985D01*
X168546900Y-105925853D01*
X168701772Y-105861703D01*
X168866184Y-105829000D01*
X169033816Y-105829000D01*
X169198228Y-105861703D01*
X169198228Y-105861703D01*
G37*
G36*
X171698228Y-105861703D02*
G01*
X171853100Y-105925853D01*
X171992481Y-106018985D01*
X172111015Y-106137519D01*
X172204147Y-106276900D01*
X172268297Y-106431772D01*
X172301000Y-106596184D01*
X172301000Y-106763816D01*
X172268297Y-106928228D01*
X172204147Y-107083100D01*
X172111015Y-107222481D01*
X171992481Y-107341015D01*
X171853100Y-107434147D01*
X171698228Y-107498297D01*
X171533816Y-107531000D01*
X171366184Y-107531000D01*
X171201772Y-107498297D01*
X171046900Y-107434147D01*
X170907519Y-107341015D01*
X170788985Y-107222481D01*
X170695853Y-107083100D01*
X170631703Y-106928228D01*
X170599000Y-106763816D01*
X170599000Y-106596184D01*
X170631703Y-106431772D01*
X170695853Y-106276900D01*
X170788985Y-106137519D01*
X170907519Y-106018985D01*
X171046900Y-105925853D01*
X171201772Y-105861703D01*
X171366184Y-105829000D01*
X171533816Y-105829000D01*
X171698228Y-105861703D01*
X171698228Y-105861703D01*
G37*
G36*
X164063642Y-99559781D02*
G01*
X164209414Y-99620162D01*
X164209416Y-99620163D01*
X164340608Y-99707822D01*
X164452178Y-99819392D01*
X164539837Y-99950584D01*
X164539838Y-99950586D01*
X164600219Y-100096358D01*
X164631000Y-100251107D01*
X164631000Y-100408893D01*
X164600219Y-100563642D01*
X164539838Y-100709414D01*
X164539837Y-100709416D01*
X164452178Y-100840608D01*
X164340608Y-100952178D01*
X164209416Y-101039837D01*
X164209415Y-101039838D01*
X164209414Y-101039838D01*
X164063642Y-101100219D01*
X163908893Y-101131000D01*
X163751107Y-101131000D01*
X163596358Y-101100219D01*
X163450586Y-101039838D01*
X163450585Y-101039838D01*
X163450584Y-101039837D01*
X163319392Y-100952178D01*
X163207822Y-100840608D01*
X163120163Y-100709416D01*
X163120162Y-100709414D01*
X163059781Y-100563642D01*
X163029000Y-100408893D01*
X163029000Y-100251107D01*
X163059781Y-100096358D01*
X163120162Y-99950586D01*
X163120163Y-99950584D01*
X163207822Y-99819392D01*
X163319392Y-99707822D01*
X163450584Y-99620163D01*
X163450586Y-99620162D01*
X163596358Y-99559781D01*
X163751107Y-99529000D01*
X163908893Y-99529000D01*
X164063642Y-99559781D01*
X164063642Y-99559781D01*
G37*
G36*
X132313642Y-99559781D02*
G01*
X132459414Y-99620162D01*
X132459416Y-99620163D01*
X132590608Y-99707822D01*
X132702178Y-99819392D01*
X132789837Y-99950584D01*
X132789838Y-99950586D01*
X132850219Y-100096358D01*
X132881000Y-100251107D01*
X132881000Y-100408893D01*
X132850219Y-100563642D01*
X132789838Y-100709414D01*
X132789837Y-100709416D01*
X132702178Y-100840608D01*
X132590608Y-100952178D01*
X132459416Y-101039837D01*
X132459415Y-101039838D01*
X132459414Y-101039838D01*
X132313642Y-101100219D01*
X132158893Y-101131000D01*
X132001107Y-101131000D01*
X131846358Y-101100219D01*
X131700586Y-101039838D01*
X131700585Y-101039838D01*
X131700584Y-101039837D01*
X131569392Y-100952178D01*
X131457822Y-100840608D01*
X131370163Y-100709416D01*
X131370162Y-100709414D01*
X131309781Y-100563642D01*
X131279000Y-100408893D01*
X131279000Y-100251107D01*
X131309781Y-100096358D01*
X131370162Y-99950586D01*
X131370163Y-99950584D01*
X131457822Y-99819392D01*
X131569392Y-99707822D01*
X131700584Y-99620163D01*
X131700586Y-99620162D01*
X131846358Y-99559781D01*
X132001107Y-99529000D01*
X132158893Y-99529000D01*
X132313642Y-99559781D01*
X132313642Y-99559781D01*
G37*
G36*
X137193642Y-99559781D02*
G01*
X137339414Y-99620162D01*
X137339416Y-99620163D01*
X137470608Y-99707822D01*
X137582178Y-99819392D01*
X137669837Y-99950584D01*
X137669838Y-99950586D01*
X137730219Y-100096358D01*
X137761000Y-100251107D01*
X137761000Y-100408893D01*
X137730219Y-100563642D01*
X137669838Y-100709414D01*
X137669837Y-100709416D01*
X137582178Y-100840608D01*
X137470608Y-100952178D01*
X137339416Y-101039837D01*
X137339415Y-101039838D01*
X137339414Y-101039838D01*
X137193642Y-101100219D01*
X137038893Y-101131000D01*
X136881107Y-101131000D01*
X136726358Y-101100219D01*
X136580586Y-101039838D01*
X136580585Y-101039838D01*
X136580584Y-101039837D01*
X136449392Y-100952178D01*
X136337822Y-100840608D01*
X136250163Y-100709416D01*
X136250162Y-100709414D01*
X136189781Y-100563642D01*
X136159000Y-100408893D01*
X136159000Y-100251107D01*
X136189781Y-100096358D01*
X136250162Y-99950586D01*
X136250163Y-99950584D01*
X136337822Y-99819392D01*
X136449392Y-99707822D01*
X136580584Y-99620163D01*
X136580586Y-99620162D01*
X136726358Y-99559781D01*
X136881107Y-99529000D01*
X137038893Y-99529000D01*
X137193642Y-99559781D01*
X137193642Y-99559781D01*
G37*
G36*
X168943642Y-99559781D02*
G01*
X169089414Y-99620162D01*
X169089416Y-99620163D01*
X169220608Y-99707822D01*
X169332178Y-99819392D01*
X169419837Y-99950584D01*
X169419838Y-99950586D01*
X169480219Y-100096358D01*
X169511000Y-100251107D01*
X169511000Y-100408893D01*
X169480219Y-100563642D01*
X169419838Y-100709414D01*
X169419837Y-100709416D01*
X169332178Y-100840608D01*
X169220608Y-100952178D01*
X169089416Y-101039837D01*
X169089415Y-101039838D01*
X169089414Y-101039838D01*
X168943642Y-101100219D01*
X168788893Y-101131000D01*
X168631107Y-101131000D01*
X168476358Y-101100219D01*
X168330586Y-101039838D01*
X168330585Y-101039838D01*
X168330584Y-101039837D01*
X168199392Y-100952178D01*
X168087822Y-100840608D01*
X168000163Y-100709416D01*
X168000162Y-100709414D01*
X167939781Y-100563642D01*
X167909000Y-100408893D01*
X167909000Y-100251107D01*
X167939781Y-100096358D01*
X168000162Y-99950586D01*
X168000163Y-99950584D01*
X168087822Y-99819392D01*
X168199392Y-99707822D01*
X168330584Y-99620163D01*
X168330586Y-99620162D01*
X168476358Y-99559781D01*
X168631107Y-99529000D01*
X168788893Y-99529000D01*
X168943642Y-99559781D01*
X168943642Y-99559781D01*
G37*
G36*
X138503665Y-93232622D02*
G01*
X138577222Y-93239867D01*
X138718786Y-93282810D01*
X138849252Y-93352546D01*
X138879040Y-93376992D01*
X138963607Y-93446393D01*
X139033008Y-93530960D01*
X139057454Y-93560748D01*
X139127190Y-93691214D01*
X139170133Y-93832778D01*
X139184633Y-93980000D01*
X139170133Y-94127222D01*
X139127190Y-94268786D01*
X139057454Y-94399252D01*
X139033008Y-94429040D01*
X138963607Y-94513607D01*
X138903004Y-94563341D01*
X138849252Y-94607454D01*
X138718786Y-94677190D01*
X138577222Y-94720133D01*
X138503665Y-94727378D01*
X138466888Y-94731000D01*
X138393112Y-94731000D01*
X138356335Y-94727378D01*
X138282778Y-94720133D01*
X138141214Y-94677190D01*
X138010748Y-94607454D01*
X137956996Y-94563341D01*
X137896393Y-94513607D01*
X137826992Y-94429040D01*
X137802546Y-94399252D01*
X137732810Y-94268786D01*
X137689867Y-94127222D01*
X137675367Y-93980000D01*
X137689867Y-93832778D01*
X137732810Y-93691214D01*
X137802546Y-93560748D01*
X137826992Y-93530960D01*
X137896393Y-93446393D01*
X137980960Y-93376992D01*
X138010748Y-93352546D01*
X138141214Y-93282810D01*
X138282778Y-93239867D01*
X138356335Y-93232622D01*
X138393112Y-93229000D01*
X138466888Y-93229000D01*
X138503665Y-93232622D01*
X138503665Y-93232622D01*
G37*
G36*
X162779059Y-93257860D02*
G01*
X162839294Y-93282810D01*
X162915732Y-93314472D01*
X163038735Y-93396660D01*
X163143340Y-93501265D01*
X163225528Y-93624268D01*
X163282140Y-93760941D01*
X163311000Y-93906033D01*
X163311000Y-94053967D01*
X163282140Y-94199059D01*
X163225528Y-94335732D01*
X163143340Y-94458735D01*
X163038735Y-94563340D01*
X162915732Y-94645528D01*
X162915731Y-94645529D01*
X162915730Y-94645529D01*
X162779059Y-94702140D01*
X162633968Y-94731000D01*
X162486032Y-94731000D01*
X162340941Y-94702140D01*
X162204270Y-94645529D01*
X162204269Y-94645529D01*
X162204268Y-94645528D01*
X162081265Y-94563340D01*
X161976660Y-94458735D01*
X161894472Y-94335732D01*
X161837860Y-94199059D01*
X161809000Y-94053967D01*
X161809000Y-93906033D01*
X161837860Y-93760941D01*
X161894472Y-93624268D01*
X161976660Y-93501265D01*
X162081265Y-93396660D01*
X162204268Y-93314472D01*
X162280707Y-93282810D01*
X162340941Y-93257860D01*
X162486032Y-93229000D01*
X162633968Y-93229000D01*
X162779059Y-93257860D01*
X162779059Y-93257860D01*
G37*
G36*
X170253665Y-93232622D02*
G01*
X170327222Y-93239867D01*
X170468786Y-93282810D01*
X170599252Y-93352546D01*
X170629040Y-93376992D01*
X170713607Y-93446393D01*
X170783008Y-93530960D01*
X170807454Y-93560748D01*
X170877190Y-93691214D01*
X170920133Y-93832778D01*
X170934633Y-93980000D01*
X170920133Y-94127222D01*
X170877190Y-94268786D01*
X170807454Y-94399252D01*
X170783008Y-94429040D01*
X170713607Y-94513607D01*
X170653004Y-94563341D01*
X170599252Y-94607454D01*
X170468786Y-94677190D01*
X170327222Y-94720133D01*
X170253665Y-94727378D01*
X170216888Y-94731000D01*
X170143112Y-94731000D01*
X170106335Y-94727378D01*
X170032778Y-94720133D01*
X169891214Y-94677190D01*
X169760748Y-94607454D01*
X169706996Y-94563341D01*
X169646393Y-94513607D01*
X169576992Y-94429040D01*
X169552546Y-94399252D01*
X169482810Y-94268786D01*
X169439867Y-94127222D01*
X169425367Y-93980000D01*
X169439867Y-93832778D01*
X169482810Y-93691214D01*
X169552546Y-93560748D01*
X169576992Y-93530960D01*
X169646393Y-93446393D01*
X169730960Y-93376992D01*
X169760748Y-93352546D01*
X169891214Y-93282810D01*
X170032778Y-93239867D01*
X170106335Y-93232622D01*
X170143112Y-93229000D01*
X170216888Y-93229000D01*
X170253665Y-93232622D01*
X170253665Y-93232622D01*
G37*
G36*
X131029059Y-93257860D02*
G01*
X131089294Y-93282810D01*
X131165732Y-93314472D01*
X131288735Y-93396660D01*
X131393340Y-93501265D01*
X131475528Y-93624268D01*
X131532140Y-93760941D01*
X131561000Y-93906033D01*
X131561000Y-94053967D01*
X131532140Y-94199059D01*
X131475528Y-94335732D01*
X131393340Y-94458735D01*
X131288735Y-94563340D01*
X131165732Y-94645528D01*
X131165731Y-94645529D01*
X131165730Y-94645529D01*
X131029059Y-94702140D01*
X130883968Y-94731000D01*
X130736032Y-94731000D01*
X130590941Y-94702140D01*
X130454270Y-94645529D01*
X130454269Y-94645529D01*
X130454268Y-94645528D01*
X130331265Y-94563340D01*
X130226660Y-94458735D01*
X130144472Y-94335732D01*
X130087860Y-94199059D01*
X130059000Y-94053967D01*
X130059000Y-93906033D01*
X130087860Y-93760941D01*
X130144472Y-93624268D01*
X130226660Y-93501265D01*
X130331265Y-93396660D01*
X130454268Y-93314472D01*
X130530707Y-93282810D01*
X130590941Y-93257860D01*
X130736032Y-93229000D01*
X130883968Y-93229000D01*
X131029059Y-93257860D01*
X131029059Y-93257860D01*
G37*
G36*
X175966294Y-88218633D02*
G01*
X176138695Y-88270931D01*
X176297583Y-88355858D01*
X176436849Y-88470151D01*
X176551142Y-88609417D01*
X176636069Y-88768305D01*
X176688367Y-88940706D01*
X176706025Y-89120000D01*
X176688367Y-89299294D01*
X176636069Y-89471695D01*
X176551142Y-89630583D01*
X176436849Y-89769849D01*
X176297583Y-89884142D01*
X176138695Y-89969069D01*
X175966294Y-90021367D01*
X175831931Y-90034600D01*
X175742069Y-90034600D01*
X175607706Y-90021367D01*
X175435305Y-89969069D01*
X175276417Y-89884142D01*
X175137151Y-89769849D01*
X175022858Y-89630583D01*
X174937931Y-89471695D01*
X174885633Y-89299294D01*
X174867975Y-89120000D01*
X174885633Y-88940706D01*
X174937931Y-88768305D01*
X175022858Y-88609417D01*
X175137151Y-88470151D01*
X175276417Y-88355858D01*
X175435305Y-88270931D01*
X175607706Y-88218633D01*
X175742069Y-88205400D01*
X175831931Y-88205400D01*
X175966294Y-88218633D01*
X175966294Y-88218633D01*
G37*
G36*
X178506294Y-88218633D02*
G01*
X178678695Y-88270931D01*
X178837583Y-88355858D01*
X178976849Y-88470151D01*
X179091142Y-88609417D01*
X179176069Y-88768305D01*
X179228367Y-88940706D01*
X179246025Y-89120000D01*
X179228367Y-89299294D01*
X179176069Y-89471695D01*
X179091142Y-89630583D01*
X178976849Y-89769849D01*
X178837583Y-89884142D01*
X178678695Y-89969069D01*
X178506294Y-90021367D01*
X178371931Y-90034600D01*
X178282069Y-90034600D01*
X178147706Y-90021367D01*
X177975305Y-89969069D01*
X177816417Y-89884142D01*
X177677151Y-89769849D01*
X177562858Y-89630583D01*
X177477931Y-89471695D01*
X177425633Y-89299294D01*
X177407975Y-89120000D01*
X177425633Y-88940706D01*
X177477931Y-88768305D01*
X177562858Y-88609417D01*
X177677151Y-88470151D01*
X177816417Y-88355858D01*
X177975305Y-88270931D01*
X178147706Y-88218633D01*
X178282069Y-88205400D01*
X178371931Y-88205400D01*
X178506294Y-88218633D01*
X178506294Y-88218633D01*
G37*
G36*
X178506294Y-85678633D02*
G01*
X178678695Y-85730931D01*
X178837583Y-85815858D01*
X178976849Y-85930151D01*
X179091142Y-86069417D01*
X179176069Y-86228305D01*
X179228367Y-86400706D01*
X179246025Y-86580000D01*
X179228367Y-86759294D01*
X179176069Y-86931695D01*
X179091142Y-87090583D01*
X178976849Y-87229849D01*
X178837583Y-87344142D01*
X178678695Y-87429069D01*
X178506294Y-87481367D01*
X178371931Y-87494600D01*
X178282069Y-87494600D01*
X178147706Y-87481367D01*
X177975305Y-87429069D01*
X177816417Y-87344142D01*
X177677151Y-87229849D01*
X177562858Y-87090583D01*
X177477931Y-86931695D01*
X177425633Y-86759294D01*
X177407975Y-86580000D01*
X177425633Y-86400706D01*
X177477931Y-86228305D01*
X177562858Y-86069417D01*
X177677151Y-85930151D01*
X177816417Y-85815858D01*
X177975305Y-85730931D01*
X178147706Y-85678633D01*
X178282069Y-85665400D01*
X178371931Y-85665400D01*
X178506294Y-85678633D01*
X178506294Y-85678633D01*
G37*
G36*
X175966294Y-85678633D02*
G01*
X176138695Y-85730931D01*
X176297583Y-85815858D01*
X176436849Y-85930151D01*
X176551142Y-86069417D01*
X176636069Y-86228305D01*
X176688367Y-86400706D01*
X176706025Y-86580000D01*
X176688367Y-86759294D01*
X176636069Y-86931695D01*
X176551142Y-87090583D01*
X176436849Y-87229849D01*
X176297583Y-87344142D01*
X176138695Y-87429069D01*
X175966294Y-87481367D01*
X175831931Y-87494600D01*
X175742069Y-87494600D01*
X175607706Y-87481367D01*
X175435305Y-87429069D01*
X175276417Y-87344142D01*
X175137151Y-87229849D01*
X175022858Y-87090583D01*
X174937931Y-86931695D01*
X174885633Y-86759294D01*
X174867975Y-86580000D01*
X174885633Y-86400706D01*
X174937931Y-86228305D01*
X175022858Y-86069417D01*
X175137151Y-85930151D01*
X175276417Y-85815858D01*
X175435305Y-85730931D01*
X175607706Y-85678633D01*
X175742069Y-85665400D01*
X175831931Y-85665400D01*
X175966294Y-85678633D01*
X175966294Y-85678633D01*
G37*
G36*
X151240442Y-85465518D02*
G01*
X151306627Y-85472037D01*
X151476466Y-85523557D01*
X151632991Y-85607222D01*
X151668729Y-85636552D01*
X151770186Y-85719814D01*
X151849006Y-85815858D01*
X151882778Y-85857009D01*
X151966443Y-86013534D01*
X152017963Y-86183373D01*
X152035359Y-86360000D01*
X152017963Y-86536627D01*
X151966443Y-86706466D01*
X151882778Y-86862991D01*
X151853448Y-86898729D01*
X151770186Y-87000186D01*
X151668729Y-87083448D01*
X151632991Y-87112778D01*
X151476466Y-87196443D01*
X151306627Y-87247963D01*
X151240442Y-87254482D01*
X151174260Y-87261000D01*
X151085740Y-87261000D01*
X151019558Y-87254482D01*
X150953373Y-87247963D01*
X150783534Y-87196443D01*
X150627009Y-87112778D01*
X150591271Y-87083448D01*
X150489814Y-87000186D01*
X150406552Y-86898729D01*
X150377222Y-86862991D01*
X150293557Y-86706466D01*
X150242037Y-86536627D01*
X150224641Y-86360000D01*
X150242037Y-86183373D01*
X150293557Y-86013534D01*
X150377222Y-85857009D01*
X150410994Y-85815858D01*
X150489814Y-85719814D01*
X150591271Y-85636552D01*
X150627009Y-85607222D01*
X150783534Y-85523557D01*
X150953373Y-85472037D01*
X151019558Y-85465518D01*
X151085740Y-85459000D01*
X151174260Y-85459000D01*
X151240442Y-85465518D01*
X151240442Y-85465518D01*
G37*
G36*
X118220442Y-85465518D02*
G01*
X118286627Y-85472037D01*
X118456466Y-85523557D01*
X118612991Y-85607222D01*
X118648729Y-85636552D01*
X118750186Y-85719814D01*
X118829006Y-85815858D01*
X118862778Y-85857009D01*
X118946443Y-86013534D01*
X118997963Y-86183373D01*
X119015359Y-86360000D01*
X118997963Y-86536627D01*
X118946443Y-86706466D01*
X118862778Y-86862991D01*
X118833448Y-86898729D01*
X118750186Y-87000186D01*
X118648729Y-87083448D01*
X118612991Y-87112778D01*
X118456466Y-87196443D01*
X118286627Y-87247963D01*
X118220442Y-87254482D01*
X118154260Y-87261000D01*
X118065740Y-87261000D01*
X117999558Y-87254482D01*
X117933373Y-87247963D01*
X117763534Y-87196443D01*
X117607009Y-87112778D01*
X117571271Y-87083448D01*
X117469814Y-87000186D01*
X117386552Y-86898729D01*
X117357222Y-86862991D01*
X117273557Y-86706466D01*
X117222037Y-86536627D01*
X117204641Y-86360000D01*
X117222037Y-86183373D01*
X117273557Y-86013534D01*
X117357222Y-85857009D01*
X117390994Y-85815858D01*
X117469814Y-85719814D01*
X117571271Y-85636552D01*
X117607009Y-85607222D01*
X117763534Y-85523557D01*
X117933373Y-85472037D01*
X117999558Y-85465518D01*
X118065740Y-85459000D01*
X118154260Y-85459000D01*
X118220442Y-85465518D01*
X118220442Y-85465518D01*
G37*
G36*
X162726823Y-85521313D02*
G01*
X162887242Y-85569976D01*
X162956922Y-85607221D01*
X163035078Y-85648996D01*
X163164659Y-85755341D01*
X163271004Y-85884922D01*
X163271005Y-85884924D01*
X163350024Y-86032758D01*
X163398687Y-86193177D01*
X163415117Y-86360000D01*
X163398687Y-86526823D01*
X163350024Y-86687242D01*
X163339747Y-86706468D01*
X163271004Y-86835078D01*
X163164659Y-86964659D01*
X163035078Y-87071004D01*
X163035076Y-87071005D01*
X162887242Y-87150024D01*
X162726823Y-87198687D01*
X162601804Y-87211000D01*
X162518196Y-87211000D01*
X162393177Y-87198687D01*
X162232758Y-87150024D01*
X162084924Y-87071005D01*
X162084922Y-87071004D01*
X161955341Y-86964659D01*
X161848996Y-86835078D01*
X161780253Y-86706468D01*
X161769976Y-86687242D01*
X161721313Y-86526823D01*
X161704883Y-86360000D01*
X161721313Y-86193177D01*
X161769976Y-86032758D01*
X161848995Y-85884924D01*
X161848996Y-85884922D01*
X161955341Y-85755341D01*
X162084922Y-85648996D01*
X162163078Y-85607221D01*
X162232758Y-85569976D01*
X162393177Y-85521313D01*
X162518196Y-85509000D01*
X162601804Y-85509000D01*
X162726823Y-85521313D01*
X162726823Y-85521313D01*
G37*
G36*
X171031000Y-87211000D02*
G01*
X169329000Y-87211000D01*
X169329000Y-85509000D01*
X171031000Y-85509000D01*
X171031000Y-87211000D01*
X171031000Y-87211000D01*
G37*
G36*
X139281000Y-87211000D02*
G01*
X137579000Y-87211000D01*
X137579000Y-85509000D01*
X139281000Y-85509000D01*
X139281000Y-87211000D01*
X139281000Y-87211000D01*
G37*
G36*
X130976823Y-85521313D02*
G01*
X131137242Y-85569976D01*
X131206922Y-85607221D01*
X131285078Y-85648996D01*
X131414659Y-85755341D01*
X131521004Y-85884922D01*
X131521005Y-85884924D01*
X131600024Y-86032758D01*
X131648687Y-86193177D01*
X131665117Y-86360000D01*
X131648687Y-86526823D01*
X131600024Y-86687242D01*
X131589747Y-86706468D01*
X131521004Y-86835078D01*
X131414659Y-86964659D01*
X131285078Y-87071004D01*
X131285076Y-87071005D01*
X131137242Y-87150024D01*
X130976823Y-87198687D01*
X130851804Y-87211000D01*
X130768196Y-87211000D01*
X130643177Y-87198687D01*
X130482758Y-87150024D01*
X130334924Y-87071005D01*
X130334922Y-87071004D01*
X130205341Y-86964659D01*
X130098996Y-86835078D01*
X130030253Y-86706468D01*
X130019976Y-86687242D01*
X129971313Y-86526823D01*
X129954883Y-86360000D01*
X129971313Y-86193177D01*
X130019976Y-86032758D01*
X130098995Y-85884924D01*
X130098996Y-85884922D01*
X130205341Y-85755341D01*
X130334922Y-85648996D01*
X130413078Y-85607221D01*
X130482758Y-85569976D01*
X130643177Y-85521313D01*
X130768196Y-85509000D01*
X130851804Y-85509000D01*
X130976823Y-85521313D01*
X130976823Y-85521313D01*
G37*
G36*
X178506294Y-83138633D02*
G01*
X178678695Y-83190931D01*
X178837583Y-83275858D01*
X178976849Y-83390151D01*
X179091142Y-83529417D01*
X179176069Y-83688305D01*
X179228367Y-83860706D01*
X179246025Y-84040000D01*
X179228367Y-84219294D01*
X179176069Y-84391695D01*
X179091142Y-84550583D01*
X178976849Y-84689849D01*
X178837583Y-84804142D01*
X178678695Y-84889069D01*
X178506294Y-84941367D01*
X178371931Y-84954600D01*
X178282069Y-84954600D01*
X178147706Y-84941367D01*
X177975305Y-84889069D01*
X177816417Y-84804142D01*
X177677151Y-84689849D01*
X177562858Y-84550583D01*
X177477931Y-84391695D01*
X177425633Y-84219294D01*
X177407975Y-84040000D01*
X177425633Y-83860706D01*
X177477931Y-83688305D01*
X177562858Y-83529417D01*
X177677151Y-83390151D01*
X177816417Y-83275858D01*
X177975305Y-83190931D01*
X178147706Y-83138633D01*
X178282069Y-83125400D01*
X178371931Y-83125400D01*
X178506294Y-83138633D01*
X178506294Y-83138633D01*
G37*
G36*
X175966294Y-83138633D02*
G01*
X176138695Y-83190931D01*
X176297583Y-83275858D01*
X176436849Y-83390151D01*
X176551142Y-83529417D01*
X176636069Y-83688305D01*
X176688367Y-83860706D01*
X176706025Y-84040000D01*
X176688367Y-84219294D01*
X176636069Y-84391695D01*
X176551142Y-84550583D01*
X176436849Y-84689849D01*
X176297583Y-84804142D01*
X176138695Y-84889069D01*
X175966294Y-84941367D01*
X175831931Y-84954600D01*
X175742069Y-84954600D01*
X175607706Y-84941367D01*
X175435305Y-84889069D01*
X175276417Y-84804142D01*
X175137151Y-84689849D01*
X175022858Y-84550583D01*
X174937931Y-84391695D01*
X174885633Y-84219294D01*
X174867975Y-84040000D01*
X174885633Y-83860706D01*
X174937931Y-83688305D01*
X175022858Y-83529417D01*
X175137151Y-83390151D01*
X175276417Y-83275858D01*
X175435305Y-83190931D01*
X175607706Y-83138633D01*
X175742069Y-83125400D01*
X175831931Y-83125400D01*
X175966294Y-83138633D01*
X175966294Y-83138633D01*
G37*
G36*
X151240443Y-82925519D02*
G01*
X151306627Y-82932037D01*
X151476466Y-82983557D01*
X151632991Y-83067222D01*
X151668729Y-83096552D01*
X151770186Y-83179814D01*
X151849006Y-83275858D01*
X151882778Y-83317009D01*
X151966443Y-83473534D01*
X152017963Y-83643373D01*
X152035359Y-83820000D01*
X152017963Y-83996627D01*
X151966443Y-84166466D01*
X151882778Y-84322991D01*
X151853448Y-84358729D01*
X151770186Y-84460186D01*
X151668729Y-84543448D01*
X151632991Y-84572778D01*
X151476466Y-84656443D01*
X151306627Y-84707963D01*
X151240443Y-84714481D01*
X151174260Y-84721000D01*
X151085740Y-84721000D01*
X151019557Y-84714481D01*
X150953373Y-84707963D01*
X150783534Y-84656443D01*
X150627009Y-84572778D01*
X150591271Y-84543448D01*
X150489814Y-84460186D01*
X150406552Y-84358729D01*
X150377222Y-84322991D01*
X150293557Y-84166466D01*
X150242037Y-83996627D01*
X150224641Y-83820000D01*
X150242037Y-83643373D01*
X150293557Y-83473534D01*
X150377222Y-83317009D01*
X150410994Y-83275858D01*
X150489814Y-83179814D01*
X150591271Y-83096552D01*
X150627009Y-83067222D01*
X150783534Y-82983557D01*
X150953373Y-82932037D01*
X151019557Y-82925519D01*
X151085740Y-82919000D01*
X151174260Y-82919000D01*
X151240443Y-82925519D01*
X151240443Y-82925519D01*
G37*
G36*
X118220443Y-82925519D02*
G01*
X118286627Y-82932037D01*
X118456466Y-82983557D01*
X118612991Y-83067222D01*
X118648729Y-83096552D01*
X118750186Y-83179814D01*
X118829006Y-83275858D01*
X118862778Y-83317009D01*
X118946443Y-83473534D01*
X118997963Y-83643373D01*
X119015359Y-83820000D01*
X118997963Y-83996627D01*
X118946443Y-84166466D01*
X118862778Y-84322991D01*
X118833448Y-84358729D01*
X118750186Y-84460186D01*
X118648729Y-84543448D01*
X118612991Y-84572778D01*
X118456466Y-84656443D01*
X118286627Y-84707963D01*
X118220443Y-84714481D01*
X118154260Y-84721000D01*
X118065740Y-84721000D01*
X117999557Y-84714481D01*
X117933373Y-84707963D01*
X117763534Y-84656443D01*
X117607009Y-84572778D01*
X117571271Y-84543448D01*
X117469814Y-84460186D01*
X117386552Y-84358729D01*
X117357222Y-84322991D01*
X117273557Y-84166466D01*
X117222037Y-83996627D01*
X117204641Y-83820000D01*
X117222037Y-83643373D01*
X117273557Y-83473534D01*
X117357222Y-83317009D01*
X117390994Y-83275858D01*
X117469814Y-83179814D01*
X117571271Y-83096552D01*
X117607009Y-83067222D01*
X117763534Y-82983557D01*
X117933373Y-82932037D01*
X117999557Y-82925519D01*
X118065740Y-82919000D01*
X118154260Y-82919000D01*
X118220443Y-82925519D01*
X118220443Y-82925519D01*
G37*
G36*
X162726823Y-82981313D02*
G01*
X162887242Y-83029976D01*
X162956922Y-83067221D01*
X163035078Y-83108996D01*
X163164659Y-83215341D01*
X163271004Y-83344922D01*
X163271005Y-83344924D01*
X163350024Y-83492758D01*
X163398687Y-83653177D01*
X163415117Y-83820000D01*
X163398687Y-83986823D01*
X163350024Y-84147242D01*
X163339747Y-84166468D01*
X163271004Y-84295078D01*
X163164659Y-84424659D01*
X163035078Y-84531004D01*
X163035076Y-84531005D01*
X162887242Y-84610024D01*
X162726823Y-84658687D01*
X162601804Y-84671000D01*
X162518196Y-84671000D01*
X162393177Y-84658687D01*
X162232758Y-84610024D01*
X162084924Y-84531005D01*
X162084922Y-84531004D01*
X161955341Y-84424659D01*
X161848996Y-84295078D01*
X161780253Y-84166468D01*
X161769976Y-84147242D01*
X161721313Y-83986823D01*
X161704883Y-83820000D01*
X161721313Y-83653177D01*
X161769976Y-83492758D01*
X161848995Y-83344924D01*
X161848996Y-83344922D01*
X161955341Y-83215341D01*
X162084922Y-83108996D01*
X162163078Y-83067221D01*
X162232758Y-83029976D01*
X162393177Y-82981313D01*
X162518196Y-82969000D01*
X162601804Y-82969000D01*
X162726823Y-82981313D01*
X162726823Y-82981313D01*
G37*
G36*
X130976823Y-82981313D02*
G01*
X131137242Y-83029976D01*
X131206922Y-83067221D01*
X131285078Y-83108996D01*
X131414659Y-83215341D01*
X131521004Y-83344922D01*
X131521005Y-83344924D01*
X131600024Y-83492758D01*
X131648687Y-83653177D01*
X131665117Y-83820000D01*
X131648687Y-83986823D01*
X131600024Y-84147242D01*
X131589747Y-84166468D01*
X131521004Y-84295078D01*
X131414659Y-84424659D01*
X131285078Y-84531004D01*
X131285076Y-84531005D01*
X131137242Y-84610024D01*
X130976823Y-84658687D01*
X130851804Y-84671000D01*
X130768196Y-84671000D01*
X130643177Y-84658687D01*
X130482758Y-84610024D01*
X130334924Y-84531005D01*
X130334922Y-84531004D01*
X130205341Y-84424659D01*
X130098996Y-84295078D01*
X130030253Y-84166468D01*
X130019976Y-84147242D01*
X129971313Y-83986823D01*
X129954883Y-83820000D01*
X129971313Y-83653177D01*
X130019976Y-83492758D01*
X130098995Y-83344924D01*
X130098996Y-83344922D01*
X130205341Y-83215341D01*
X130334922Y-83108996D01*
X130413078Y-83067221D01*
X130482758Y-83029976D01*
X130643177Y-82981313D01*
X130768196Y-82969000D01*
X130851804Y-82969000D01*
X130976823Y-82981313D01*
X130976823Y-82981313D01*
G37*
G36*
X138596823Y-82981313D02*
G01*
X138757242Y-83029976D01*
X138826922Y-83067221D01*
X138905078Y-83108996D01*
X139034659Y-83215341D01*
X139141004Y-83344922D01*
X139141005Y-83344924D01*
X139220024Y-83492758D01*
X139268687Y-83653177D01*
X139285117Y-83820000D01*
X139268687Y-83986823D01*
X139220024Y-84147242D01*
X139209747Y-84166468D01*
X139141004Y-84295078D01*
X139034659Y-84424659D01*
X138905078Y-84531004D01*
X138905076Y-84531005D01*
X138757242Y-84610024D01*
X138596823Y-84658687D01*
X138471804Y-84671000D01*
X138388196Y-84671000D01*
X138263177Y-84658687D01*
X138102758Y-84610024D01*
X137954924Y-84531005D01*
X137954922Y-84531004D01*
X137825341Y-84424659D01*
X137718996Y-84295078D01*
X137650253Y-84166468D01*
X137639976Y-84147242D01*
X137591313Y-83986823D01*
X137574883Y-83820000D01*
X137591313Y-83653177D01*
X137639976Y-83492758D01*
X137718995Y-83344924D01*
X137718996Y-83344922D01*
X137825341Y-83215341D01*
X137954922Y-83108996D01*
X138033078Y-83067221D01*
X138102758Y-83029976D01*
X138263177Y-82981313D01*
X138388196Y-82969000D01*
X138471804Y-82969000D01*
X138596823Y-82981313D01*
X138596823Y-82981313D01*
G37*
G36*
X170346823Y-82981313D02*
G01*
X170507242Y-83029976D01*
X170576922Y-83067221D01*
X170655078Y-83108996D01*
X170784659Y-83215341D01*
X170891004Y-83344922D01*
X170891005Y-83344924D01*
X170970024Y-83492758D01*
X171018687Y-83653177D01*
X171035117Y-83820000D01*
X171018687Y-83986823D01*
X170970024Y-84147242D01*
X170959747Y-84166468D01*
X170891004Y-84295078D01*
X170784659Y-84424659D01*
X170655078Y-84531004D01*
X170655076Y-84531005D01*
X170507242Y-84610024D01*
X170346823Y-84658687D01*
X170221804Y-84671000D01*
X170138196Y-84671000D01*
X170013177Y-84658687D01*
X169852758Y-84610024D01*
X169704924Y-84531005D01*
X169704922Y-84531004D01*
X169575341Y-84424659D01*
X169468996Y-84295078D01*
X169400253Y-84166468D01*
X169389976Y-84147242D01*
X169341313Y-83986823D01*
X169324883Y-83820000D01*
X169341313Y-83653177D01*
X169389976Y-83492758D01*
X169468995Y-83344924D01*
X169468996Y-83344922D01*
X169575341Y-83215341D01*
X169704922Y-83108996D01*
X169783078Y-83067221D01*
X169852758Y-83029976D01*
X170013177Y-82981313D01*
X170138196Y-82969000D01*
X170221804Y-82969000D01*
X170346823Y-82981313D01*
X170346823Y-82981313D01*
G37*
G36*
X118220442Y-80385518D02*
G01*
X118286627Y-80392037D01*
X118456466Y-80443557D01*
X118612991Y-80527222D01*
X118637764Y-80547553D01*
X118750186Y-80639814D01*
X118833448Y-80741271D01*
X118862778Y-80777009D01*
X118946443Y-80933534D01*
X118997963Y-81103373D01*
X119015359Y-81280000D01*
X118997963Y-81456627D01*
X118946443Y-81626466D01*
X118862778Y-81782991D01*
X118833448Y-81818729D01*
X118750186Y-81920186D01*
X118648729Y-82003448D01*
X118612991Y-82032778D01*
X118456466Y-82116443D01*
X118286627Y-82167963D01*
X118220443Y-82174481D01*
X118154260Y-82181000D01*
X118065740Y-82181000D01*
X117999557Y-82174481D01*
X117933373Y-82167963D01*
X117763534Y-82116443D01*
X117607009Y-82032778D01*
X117571271Y-82003448D01*
X117469814Y-81920186D01*
X117386552Y-81818729D01*
X117357222Y-81782991D01*
X117273557Y-81626466D01*
X117222037Y-81456627D01*
X117204641Y-81280000D01*
X117222037Y-81103373D01*
X117273557Y-80933534D01*
X117357222Y-80777009D01*
X117386552Y-80741271D01*
X117469814Y-80639814D01*
X117582236Y-80547553D01*
X117607009Y-80527222D01*
X117763534Y-80443557D01*
X117933373Y-80392037D01*
X117999558Y-80385518D01*
X118065740Y-80379000D01*
X118154260Y-80379000D01*
X118220442Y-80385518D01*
X118220442Y-80385518D01*
G37*
G36*
X151240442Y-80385518D02*
G01*
X151306627Y-80392037D01*
X151476466Y-80443557D01*
X151632991Y-80527222D01*
X151657764Y-80547553D01*
X151770186Y-80639814D01*
X151853448Y-80741271D01*
X151882778Y-80777009D01*
X151966443Y-80933534D01*
X152017963Y-81103373D01*
X152035359Y-81280000D01*
X152017963Y-81456627D01*
X151966443Y-81626466D01*
X151882778Y-81782991D01*
X151853448Y-81818729D01*
X151770186Y-81920186D01*
X151668729Y-82003448D01*
X151632991Y-82032778D01*
X151476466Y-82116443D01*
X151306627Y-82167963D01*
X151240443Y-82174481D01*
X151174260Y-82181000D01*
X151085740Y-82181000D01*
X151019557Y-82174481D01*
X150953373Y-82167963D01*
X150783534Y-82116443D01*
X150627009Y-82032778D01*
X150591271Y-82003448D01*
X150489814Y-81920186D01*
X150406552Y-81818729D01*
X150377222Y-81782991D01*
X150293557Y-81626466D01*
X150242037Y-81456627D01*
X150224641Y-81280000D01*
X150242037Y-81103373D01*
X150293557Y-80933534D01*
X150377222Y-80777009D01*
X150406552Y-80741271D01*
X150489814Y-80639814D01*
X150602236Y-80547553D01*
X150627009Y-80527222D01*
X150783534Y-80443557D01*
X150953373Y-80392037D01*
X151019558Y-80385518D01*
X151085740Y-80379000D01*
X151174260Y-80379000D01*
X151240442Y-80385518D01*
X151240442Y-80385518D01*
G37*
G36*
X130976823Y-80441313D02*
G01*
X131137242Y-80489976D01*
X131206922Y-80527221D01*
X131285078Y-80568996D01*
X131414659Y-80675341D01*
X131521004Y-80804922D01*
X131521005Y-80804924D01*
X131600024Y-80952758D01*
X131648687Y-81113177D01*
X131665117Y-81280000D01*
X131648687Y-81446823D01*
X131600024Y-81607242D01*
X131589747Y-81626468D01*
X131521004Y-81755078D01*
X131414659Y-81884659D01*
X131285078Y-81991004D01*
X131285076Y-81991005D01*
X131137242Y-82070024D01*
X130976823Y-82118687D01*
X130851804Y-82131000D01*
X130768196Y-82131000D01*
X130643177Y-82118687D01*
X130482758Y-82070024D01*
X130334924Y-81991005D01*
X130334922Y-81991004D01*
X130205341Y-81884659D01*
X130098996Y-81755078D01*
X130030253Y-81626468D01*
X130019976Y-81607242D01*
X129971313Y-81446823D01*
X129954883Y-81280000D01*
X129971313Y-81113177D01*
X130019976Y-80952758D01*
X130098995Y-80804924D01*
X130098996Y-80804922D01*
X130205341Y-80675341D01*
X130334922Y-80568996D01*
X130413078Y-80527221D01*
X130482758Y-80489976D01*
X130643177Y-80441313D01*
X130768196Y-80429000D01*
X130851804Y-80429000D01*
X130976823Y-80441313D01*
X130976823Y-80441313D01*
G37*
G36*
X138596823Y-80441313D02*
G01*
X138757242Y-80489976D01*
X138826922Y-80527221D01*
X138905078Y-80568996D01*
X139034659Y-80675341D01*
X139141004Y-80804922D01*
X139141005Y-80804924D01*
X139220024Y-80952758D01*
X139268687Y-81113177D01*
X139285117Y-81280000D01*
X139268687Y-81446823D01*
X139220024Y-81607242D01*
X139209747Y-81626468D01*
X139141004Y-81755078D01*
X139034659Y-81884659D01*
X138905078Y-81991004D01*
X138905076Y-81991005D01*
X138757242Y-82070024D01*
X138596823Y-82118687D01*
X138471804Y-82131000D01*
X138388196Y-82131000D01*
X138263177Y-82118687D01*
X138102758Y-82070024D01*
X137954924Y-81991005D01*
X137954922Y-81991004D01*
X137825341Y-81884659D01*
X137718996Y-81755078D01*
X137650253Y-81626468D01*
X137639976Y-81607242D01*
X137591313Y-81446823D01*
X137574883Y-81280000D01*
X137591313Y-81113177D01*
X137639976Y-80952758D01*
X137718995Y-80804924D01*
X137718996Y-80804922D01*
X137825341Y-80675341D01*
X137954922Y-80568996D01*
X138033078Y-80527221D01*
X138102758Y-80489976D01*
X138263177Y-80441313D01*
X138388196Y-80429000D01*
X138471804Y-80429000D01*
X138596823Y-80441313D01*
X138596823Y-80441313D01*
G37*
G36*
X170346823Y-80441313D02*
G01*
X170507242Y-80489976D01*
X170576922Y-80527221D01*
X170655078Y-80568996D01*
X170784659Y-80675341D01*
X170891004Y-80804922D01*
X170891005Y-80804924D01*
X170970024Y-80952758D01*
X171018687Y-81113177D01*
X171035117Y-81280000D01*
X171018687Y-81446823D01*
X170970024Y-81607242D01*
X170959747Y-81626468D01*
X170891004Y-81755078D01*
X170784659Y-81884659D01*
X170655078Y-81991004D01*
X170655076Y-81991005D01*
X170507242Y-82070024D01*
X170346823Y-82118687D01*
X170221804Y-82131000D01*
X170138196Y-82131000D01*
X170013177Y-82118687D01*
X169852758Y-82070024D01*
X169704924Y-81991005D01*
X169704922Y-81991004D01*
X169575341Y-81884659D01*
X169468996Y-81755078D01*
X169400253Y-81626468D01*
X169389976Y-81607242D01*
X169341313Y-81446823D01*
X169324883Y-81280000D01*
X169341313Y-81113177D01*
X169389976Y-80952758D01*
X169468995Y-80804924D01*
X169468996Y-80804922D01*
X169575341Y-80675341D01*
X169704922Y-80568996D01*
X169783078Y-80527221D01*
X169852758Y-80489976D01*
X170013177Y-80441313D01*
X170138196Y-80429000D01*
X170221804Y-80429000D01*
X170346823Y-80441313D01*
X170346823Y-80441313D01*
G37*
G36*
X162726823Y-80441313D02*
G01*
X162887242Y-80489976D01*
X162956922Y-80527221D01*
X163035078Y-80568996D01*
X163164659Y-80675341D01*
X163271004Y-80804922D01*
X163271005Y-80804924D01*
X163350024Y-80952758D01*
X163398687Y-81113177D01*
X163415117Y-81280000D01*
X163398687Y-81446823D01*
X163350024Y-81607242D01*
X163339747Y-81626468D01*
X163271004Y-81755078D01*
X163164659Y-81884659D01*
X163035078Y-81991004D01*
X163035076Y-81991005D01*
X162887242Y-82070024D01*
X162726823Y-82118687D01*
X162601804Y-82131000D01*
X162518196Y-82131000D01*
X162393177Y-82118687D01*
X162232758Y-82070024D01*
X162084924Y-81991005D01*
X162084922Y-81991004D01*
X161955341Y-81884659D01*
X161848996Y-81755078D01*
X161780253Y-81626468D01*
X161769976Y-81607242D01*
X161721313Y-81446823D01*
X161704883Y-81280000D01*
X161721313Y-81113177D01*
X161769976Y-80952758D01*
X161848995Y-80804924D01*
X161848996Y-80804922D01*
X161955341Y-80675341D01*
X162084922Y-80568996D01*
X162163078Y-80527221D01*
X162232758Y-80489976D01*
X162393177Y-80441313D01*
X162518196Y-80429000D01*
X162601804Y-80429000D01*
X162726823Y-80441313D01*
X162726823Y-80441313D01*
G37*
G36*
X178575256Y-77351298D02*
G01*
X178681579Y-77372447D01*
X178982042Y-77496903D01*
X179252451Y-77677585D01*
X179482415Y-77907549D01*
X179663097Y-78177958D01*
X179760356Y-78412761D01*
X179787553Y-78478422D01*
X179839585Y-78740000D01*
X179851000Y-78797391D01*
X179851000Y-79122609D01*
X179787553Y-79441579D01*
X179663097Y-79742042D01*
X179482415Y-80012451D01*
X179252451Y-80242415D01*
X178982042Y-80423097D01*
X178982041Y-80423098D01*
X178982040Y-80423098D01*
X178932647Y-80443557D01*
X178681579Y-80547553D01*
X178575256Y-80568702D01*
X178362611Y-80611000D01*
X178037389Y-80611000D01*
X177824744Y-80568702D01*
X177718421Y-80547553D01*
X177467353Y-80443557D01*
X177417960Y-80423098D01*
X177417959Y-80423098D01*
X177417958Y-80423097D01*
X177147549Y-80242415D01*
X176917585Y-80012451D01*
X176736903Y-79742042D01*
X176612447Y-79441579D01*
X176549000Y-79122609D01*
X176549000Y-78797391D01*
X176560416Y-78740000D01*
X176612447Y-78478422D01*
X176639645Y-78412761D01*
X176736903Y-78177958D01*
X176917585Y-77907549D01*
X177147549Y-77677585D01*
X177417958Y-77496903D01*
X177718421Y-77372447D01*
X177824744Y-77351298D01*
X178037389Y-77309000D01*
X178362611Y-77309000D01*
X178575256Y-77351298D01*
X178575256Y-77351298D01*
G37*
G36*
X119011000Y-79641000D02*
G01*
X117209000Y-79641000D01*
X117209000Y-77839000D01*
X119011000Y-77839000D01*
X119011000Y-79641000D01*
X119011000Y-79641000D01*
G37*
G36*
X152031000Y-79641000D02*
G01*
X150229000Y-79641000D01*
X150229000Y-77839000D01*
X152031000Y-77839000D01*
X152031000Y-79641000D01*
X152031000Y-79641000D01*
G37*
G36*
X162726823Y-77901313D02*
G01*
X162887242Y-77949976D01*
X163019906Y-78020886D01*
X163035078Y-78028996D01*
X163164659Y-78135341D01*
X163271004Y-78264922D01*
X163271005Y-78264924D01*
X163350024Y-78412758D01*
X163398687Y-78573177D01*
X163415117Y-78740000D01*
X163398687Y-78906823D01*
X163350024Y-79067242D01*
X163279114Y-79199906D01*
X163271004Y-79215078D01*
X163164659Y-79344659D01*
X163035078Y-79451004D01*
X163035076Y-79451005D01*
X162887242Y-79530024D01*
X162726823Y-79578687D01*
X162601804Y-79591000D01*
X162518196Y-79591000D01*
X162393177Y-79578687D01*
X162232758Y-79530024D01*
X162084924Y-79451005D01*
X162084922Y-79451004D01*
X161955341Y-79344659D01*
X161848996Y-79215078D01*
X161840886Y-79199906D01*
X161769976Y-79067242D01*
X161721313Y-78906823D01*
X161704883Y-78740000D01*
X161721313Y-78573177D01*
X161769976Y-78412758D01*
X161848995Y-78264924D01*
X161848996Y-78264922D01*
X161955341Y-78135341D01*
X162084922Y-78028996D01*
X162100094Y-78020886D01*
X162232758Y-77949976D01*
X162393177Y-77901313D01*
X162518196Y-77889000D01*
X162601804Y-77889000D01*
X162726823Y-77901313D01*
X162726823Y-77901313D01*
G37*
G36*
X170346823Y-77901313D02*
G01*
X170507242Y-77949976D01*
X170639906Y-78020886D01*
X170655078Y-78028996D01*
X170784659Y-78135341D01*
X170891004Y-78264922D01*
X170891005Y-78264924D01*
X170970024Y-78412758D01*
X171018687Y-78573177D01*
X171035117Y-78740000D01*
X171018687Y-78906823D01*
X170970024Y-79067242D01*
X170899114Y-79199906D01*
X170891004Y-79215078D01*
X170784659Y-79344659D01*
X170655078Y-79451004D01*
X170655076Y-79451005D01*
X170507242Y-79530024D01*
X170346823Y-79578687D01*
X170221804Y-79591000D01*
X170138196Y-79591000D01*
X170013177Y-79578687D01*
X169852758Y-79530024D01*
X169704924Y-79451005D01*
X169704922Y-79451004D01*
X169575341Y-79344659D01*
X169468996Y-79215078D01*
X169460886Y-79199906D01*
X169389976Y-79067242D01*
X169341313Y-78906823D01*
X169324883Y-78740000D01*
X169341313Y-78573177D01*
X169389976Y-78412758D01*
X169468995Y-78264924D01*
X169468996Y-78264922D01*
X169575341Y-78135341D01*
X169704922Y-78028996D01*
X169720094Y-78020886D01*
X169852758Y-77949976D01*
X170013177Y-77901313D01*
X170138196Y-77889000D01*
X170221804Y-77889000D01*
X170346823Y-77901313D01*
X170346823Y-77901313D01*
G37*
G36*
X138596823Y-77901313D02*
G01*
X138757242Y-77949976D01*
X138889906Y-78020886D01*
X138905078Y-78028996D01*
X139034659Y-78135341D01*
X139141004Y-78264922D01*
X139141005Y-78264924D01*
X139220024Y-78412758D01*
X139268687Y-78573177D01*
X139285117Y-78740000D01*
X139268687Y-78906823D01*
X139220024Y-79067242D01*
X139149114Y-79199906D01*
X139141004Y-79215078D01*
X139034659Y-79344659D01*
X138905078Y-79451004D01*
X138905076Y-79451005D01*
X138757242Y-79530024D01*
X138596823Y-79578687D01*
X138471804Y-79591000D01*
X138388196Y-79591000D01*
X138263177Y-79578687D01*
X138102758Y-79530024D01*
X137954924Y-79451005D01*
X137954922Y-79451004D01*
X137825341Y-79344659D01*
X137718996Y-79215078D01*
X137710886Y-79199906D01*
X137639976Y-79067242D01*
X137591313Y-78906823D01*
X137574883Y-78740000D01*
X137591313Y-78573177D01*
X137639976Y-78412758D01*
X137718995Y-78264924D01*
X137718996Y-78264922D01*
X137825341Y-78135341D01*
X137954922Y-78028996D01*
X137970094Y-78020886D01*
X138102758Y-77949976D01*
X138263177Y-77901313D01*
X138388196Y-77889000D01*
X138471804Y-77889000D01*
X138596823Y-77901313D01*
X138596823Y-77901313D01*
G37*
G36*
X130976823Y-77901313D02*
G01*
X131137242Y-77949976D01*
X131269906Y-78020886D01*
X131285078Y-78028996D01*
X131414659Y-78135341D01*
X131521004Y-78264922D01*
X131521005Y-78264924D01*
X131600024Y-78412758D01*
X131648687Y-78573177D01*
X131665117Y-78740000D01*
X131648687Y-78906823D01*
X131600024Y-79067242D01*
X131529114Y-79199906D01*
X131521004Y-79215078D01*
X131414659Y-79344659D01*
X131285078Y-79451004D01*
X131285076Y-79451005D01*
X131137242Y-79530024D01*
X130976823Y-79578687D01*
X130851804Y-79591000D01*
X130768196Y-79591000D01*
X130643177Y-79578687D01*
X130482758Y-79530024D01*
X130334924Y-79451005D01*
X130334922Y-79451004D01*
X130205341Y-79344659D01*
X130098996Y-79215078D01*
X130090886Y-79199906D01*
X130019976Y-79067242D01*
X129971313Y-78906823D01*
X129954883Y-78740000D01*
X129971313Y-78573177D01*
X130019976Y-78412758D01*
X130098995Y-78264924D01*
X130098996Y-78264922D01*
X130205341Y-78135341D01*
X130334922Y-78028996D01*
X130350094Y-78020886D01*
X130482758Y-77949976D01*
X130643177Y-77901313D01*
X130768196Y-77889000D01*
X130851804Y-77889000D01*
X130976823Y-77901313D01*
X130976823Y-77901313D01*
G37*
G36*
X138596823Y-75361313D02*
G01*
X138757242Y-75409976D01*
X138889906Y-75480886D01*
X138905078Y-75488996D01*
X139034659Y-75595341D01*
X139141004Y-75724922D01*
X139141005Y-75724924D01*
X139220024Y-75872758D01*
X139268687Y-76033177D01*
X139285117Y-76200000D01*
X139268687Y-76366823D01*
X139220024Y-76527242D01*
X139149114Y-76659906D01*
X139141004Y-76675078D01*
X139034659Y-76804659D01*
X138905078Y-76911004D01*
X138905076Y-76911005D01*
X138757242Y-76990024D01*
X138596823Y-77038687D01*
X138471804Y-77051000D01*
X138388196Y-77051000D01*
X138263177Y-77038687D01*
X138102758Y-76990024D01*
X137954924Y-76911005D01*
X137954922Y-76911004D01*
X137825341Y-76804659D01*
X137718996Y-76675078D01*
X137710886Y-76659906D01*
X137639976Y-76527242D01*
X137591313Y-76366823D01*
X137574883Y-76200000D01*
X137591313Y-76033177D01*
X137639976Y-75872758D01*
X137718995Y-75724924D01*
X137718996Y-75724922D01*
X137825341Y-75595341D01*
X137954922Y-75488996D01*
X137970094Y-75480886D01*
X138102758Y-75409976D01*
X138263177Y-75361313D01*
X138388196Y-75349000D01*
X138471804Y-75349000D01*
X138596823Y-75361313D01*
X138596823Y-75361313D01*
G37*
G36*
X130976823Y-75361313D02*
G01*
X131137242Y-75409976D01*
X131269906Y-75480886D01*
X131285078Y-75488996D01*
X131414659Y-75595341D01*
X131521004Y-75724922D01*
X131521005Y-75724924D01*
X131600024Y-75872758D01*
X131648687Y-76033177D01*
X131665117Y-76200000D01*
X131648687Y-76366823D01*
X131600024Y-76527242D01*
X131529114Y-76659906D01*
X131521004Y-76675078D01*
X131414659Y-76804659D01*
X131285078Y-76911004D01*
X131285076Y-76911005D01*
X131137242Y-76990024D01*
X130976823Y-77038687D01*
X130851804Y-77051000D01*
X130768196Y-77051000D01*
X130643177Y-77038687D01*
X130482758Y-76990024D01*
X130334924Y-76911005D01*
X130334922Y-76911004D01*
X130205341Y-76804659D01*
X130098996Y-76675078D01*
X130090886Y-76659906D01*
X130019976Y-76527242D01*
X129971313Y-76366823D01*
X129954883Y-76200000D01*
X129971313Y-76033177D01*
X130019976Y-75872758D01*
X130098995Y-75724924D01*
X130098996Y-75724922D01*
X130205341Y-75595341D01*
X130334922Y-75488996D01*
X130350094Y-75480886D01*
X130482758Y-75409976D01*
X130643177Y-75361313D01*
X130768196Y-75349000D01*
X130851804Y-75349000D01*
X130976823Y-75361313D01*
X130976823Y-75361313D01*
G37*
G36*
X170346823Y-75361313D02*
G01*
X170507242Y-75409976D01*
X170639906Y-75480886D01*
X170655078Y-75488996D01*
X170784659Y-75595341D01*
X170891004Y-75724922D01*
X170891005Y-75724924D01*
X170970024Y-75872758D01*
X171018687Y-76033177D01*
X171035117Y-76200000D01*
X171018687Y-76366823D01*
X170970024Y-76527242D01*
X170899114Y-76659906D01*
X170891004Y-76675078D01*
X170784659Y-76804659D01*
X170655078Y-76911004D01*
X170655076Y-76911005D01*
X170507242Y-76990024D01*
X170346823Y-77038687D01*
X170221804Y-77051000D01*
X170138196Y-77051000D01*
X170013177Y-77038687D01*
X169852758Y-76990024D01*
X169704924Y-76911005D01*
X169704922Y-76911004D01*
X169575341Y-76804659D01*
X169468996Y-76675078D01*
X169460886Y-76659906D01*
X169389976Y-76527242D01*
X169341313Y-76366823D01*
X169324883Y-76200000D01*
X169341313Y-76033177D01*
X169389976Y-75872758D01*
X169468995Y-75724924D01*
X169468996Y-75724922D01*
X169575341Y-75595341D01*
X169704922Y-75488996D01*
X169720094Y-75480886D01*
X169852758Y-75409976D01*
X170013177Y-75361313D01*
X170138196Y-75349000D01*
X170221804Y-75349000D01*
X170346823Y-75361313D01*
X170346823Y-75361313D01*
G37*
G36*
X162726823Y-75361313D02*
G01*
X162887242Y-75409976D01*
X163019906Y-75480886D01*
X163035078Y-75488996D01*
X163164659Y-75595341D01*
X163271004Y-75724922D01*
X163271005Y-75724924D01*
X163350024Y-75872758D01*
X163398687Y-76033177D01*
X163415117Y-76200000D01*
X163398687Y-76366823D01*
X163350024Y-76527242D01*
X163279114Y-76659906D01*
X163271004Y-76675078D01*
X163164659Y-76804659D01*
X163035078Y-76911004D01*
X163035076Y-76911005D01*
X162887242Y-76990024D01*
X162726823Y-77038687D01*
X162601804Y-77051000D01*
X162518196Y-77051000D01*
X162393177Y-77038687D01*
X162232758Y-76990024D01*
X162084924Y-76911005D01*
X162084922Y-76911004D01*
X161955341Y-76804659D01*
X161848996Y-76675078D01*
X161840886Y-76659906D01*
X161769976Y-76527242D01*
X161721313Y-76366823D01*
X161704883Y-76200000D01*
X161721313Y-76033177D01*
X161769976Y-75872758D01*
X161848995Y-75724924D01*
X161848996Y-75724922D01*
X161955341Y-75595341D01*
X162084922Y-75488996D01*
X162100094Y-75480886D01*
X162232758Y-75409976D01*
X162393177Y-75361313D01*
X162518196Y-75349000D01*
X162601804Y-75349000D01*
X162726823Y-75361313D01*
X162726823Y-75361313D01*
G37*
G36*
X162726823Y-72821313D02*
G01*
X162887242Y-72869976D01*
X163019906Y-72940886D01*
X163035078Y-72948996D01*
X163164659Y-73055341D01*
X163271004Y-73184922D01*
X163271005Y-73184924D01*
X163350024Y-73332758D01*
X163398687Y-73493177D01*
X163415117Y-73660000D01*
X163398687Y-73826823D01*
X163350024Y-73987242D01*
X163279114Y-74119906D01*
X163271004Y-74135078D01*
X163164659Y-74264659D01*
X163035078Y-74371004D01*
X163035076Y-74371005D01*
X162887242Y-74450024D01*
X162726823Y-74498687D01*
X162601804Y-74511000D01*
X162518196Y-74511000D01*
X162393177Y-74498687D01*
X162232758Y-74450024D01*
X162084924Y-74371005D01*
X162084922Y-74371004D01*
X161955341Y-74264659D01*
X161848996Y-74135078D01*
X161840886Y-74119906D01*
X161769976Y-73987242D01*
X161721313Y-73826823D01*
X161704883Y-73660000D01*
X161721313Y-73493177D01*
X161769976Y-73332758D01*
X161848995Y-73184924D01*
X161848996Y-73184922D01*
X161955341Y-73055341D01*
X162084922Y-72948996D01*
X162100094Y-72940886D01*
X162232758Y-72869976D01*
X162393177Y-72821313D01*
X162518196Y-72809000D01*
X162601804Y-72809000D01*
X162726823Y-72821313D01*
X162726823Y-72821313D01*
G37*
G36*
X138596823Y-72821313D02*
G01*
X138757242Y-72869976D01*
X138889906Y-72940886D01*
X138905078Y-72948996D01*
X139034659Y-73055341D01*
X139141004Y-73184922D01*
X139141005Y-73184924D01*
X139220024Y-73332758D01*
X139268687Y-73493177D01*
X139285117Y-73660000D01*
X139268687Y-73826823D01*
X139220024Y-73987242D01*
X139149114Y-74119906D01*
X139141004Y-74135078D01*
X139034659Y-74264659D01*
X138905078Y-74371004D01*
X138905076Y-74371005D01*
X138757242Y-74450024D01*
X138596823Y-74498687D01*
X138471804Y-74511000D01*
X138388196Y-74511000D01*
X138263177Y-74498687D01*
X138102758Y-74450024D01*
X137954924Y-74371005D01*
X137954922Y-74371004D01*
X137825341Y-74264659D01*
X137718996Y-74135078D01*
X137710886Y-74119906D01*
X137639976Y-73987242D01*
X137591313Y-73826823D01*
X137574883Y-73660000D01*
X137591313Y-73493177D01*
X137639976Y-73332758D01*
X137718995Y-73184924D01*
X137718996Y-73184922D01*
X137825341Y-73055341D01*
X137954922Y-72948996D01*
X137970094Y-72940886D01*
X138102758Y-72869976D01*
X138263177Y-72821313D01*
X138388196Y-72809000D01*
X138471804Y-72809000D01*
X138596823Y-72821313D01*
X138596823Y-72821313D01*
G37*
G36*
X170346823Y-72821313D02*
G01*
X170507242Y-72869976D01*
X170639906Y-72940886D01*
X170655078Y-72948996D01*
X170784659Y-73055341D01*
X170891004Y-73184922D01*
X170891005Y-73184924D01*
X170970024Y-73332758D01*
X171018687Y-73493177D01*
X171035117Y-73660000D01*
X171018687Y-73826823D01*
X170970024Y-73987242D01*
X170899114Y-74119906D01*
X170891004Y-74135078D01*
X170784659Y-74264659D01*
X170655078Y-74371004D01*
X170655076Y-74371005D01*
X170507242Y-74450024D01*
X170346823Y-74498687D01*
X170221804Y-74511000D01*
X170138196Y-74511000D01*
X170013177Y-74498687D01*
X169852758Y-74450024D01*
X169704924Y-74371005D01*
X169704922Y-74371004D01*
X169575341Y-74264659D01*
X169468996Y-74135078D01*
X169460886Y-74119906D01*
X169389976Y-73987242D01*
X169341313Y-73826823D01*
X169324883Y-73660000D01*
X169341313Y-73493177D01*
X169389976Y-73332758D01*
X169468995Y-73184924D01*
X169468996Y-73184922D01*
X169575341Y-73055341D01*
X169704922Y-72948996D01*
X169720094Y-72940886D01*
X169852758Y-72869976D01*
X170013177Y-72821313D01*
X170138196Y-72809000D01*
X170221804Y-72809000D01*
X170346823Y-72821313D01*
X170346823Y-72821313D01*
G37*
G36*
X130976823Y-72821313D02*
G01*
X131137242Y-72869976D01*
X131269906Y-72940886D01*
X131285078Y-72948996D01*
X131414659Y-73055341D01*
X131521004Y-73184922D01*
X131521005Y-73184924D01*
X131600024Y-73332758D01*
X131648687Y-73493177D01*
X131665117Y-73660000D01*
X131648687Y-73826823D01*
X131600024Y-73987242D01*
X131529114Y-74119906D01*
X131521004Y-74135078D01*
X131414659Y-74264659D01*
X131285078Y-74371004D01*
X131285076Y-74371005D01*
X131137242Y-74450024D01*
X130976823Y-74498687D01*
X130851804Y-74511000D01*
X130768196Y-74511000D01*
X130643177Y-74498687D01*
X130482758Y-74450024D01*
X130334924Y-74371005D01*
X130334922Y-74371004D01*
X130205341Y-74264659D01*
X130098996Y-74135078D01*
X130090886Y-74119906D01*
X130019976Y-73987242D01*
X129971313Y-73826823D01*
X129954883Y-73660000D01*
X129971313Y-73493177D01*
X130019976Y-73332758D01*
X130098995Y-73184924D01*
X130098996Y-73184922D01*
X130205341Y-73055341D01*
X130334922Y-72948996D01*
X130350094Y-72940886D01*
X130482758Y-72869976D01*
X130643177Y-72821313D01*
X130768196Y-72809000D01*
X130851804Y-72809000D01*
X130976823Y-72821313D01*
X130976823Y-72821313D01*
G37*
G36*
X177431000Y-73291000D02*
G01*
X175629000Y-73291000D01*
X175629000Y-71489000D01*
X177431000Y-71489000D01*
X177431000Y-73291000D01*
X177431000Y-73291000D01*
G37*
G36*
X116950442Y-70225518D02*
G01*
X117016627Y-70232037D01*
X117186466Y-70283557D01*
X117342991Y-70367222D01*
X117378729Y-70396552D01*
X117480186Y-70479814D01*
X117563448Y-70581271D01*
X117592778Y-70617009D01*
X117676443Y-70773534D01*
X117727963Y-70943373D01*
X117745359Y-71120000D01*
X117727963Y-71296627D01*
X117676443Y-71466466D01*
X117592778Y-71622991D01*
X117563448Y-71658729D01*
X117480186Y-71760186D01*
X117378729Y-71843448D01*
X117342991Y-71872778D01*
X117186466Y-71956443D01*
X117016627Y-72007963D01*
X116950443Y-72014481D01*
X116884260Y-72021000D01*
X116795740Y-72021000D01*
X116729557Y-72014481D01*
X116663373Y-72007963D01*
X116493534Y-71956443D01*
X116337009Y-71872778D01*
X116301271Y-71843448D01*
X116199814Y-71760186D01*
X116116552Y-71658729D01*
X116087222Y-71622991D01*
X116003557Y-71466466D01*
X115952037Y-71296627D01*
X115934641Y-71120000D01*
X115952037Y-70943373D01*
X116003557Y-70773534D01*
X116087222Y-70617009D01*
X116116552Y-70581271D01*
X116199814Y-70479814D01*
X116301271Y-70396552D01*
X116337009Y-70367222D01*
X116493534Y-70283557D01*
X116663373Y-70232037D01*
X116729558Y-70225518D01*
X116795740Y-70219000D01*
X116884260Y-70219000D01*
X116950442Y-70225518D01*
X116950442Y-70225518D01*
G37*
G36*
X114410442Y-70225518D02*
G01*
X114476627Y-70232037D01*
X114646466Y-70283557D01*
X114802991Y-70367222D01*
X114838729Y-70396552D01*
X114940186Y-70479814D01*
X115023448Y-70581271D01*
X115052778Y-70617009D01*
X115136443Y-70773534D01*
X115187963Y-70943373D01*
X115205359Y-71120000D01*
X115187963Y-71296627D01*
X115136443Y-71466466D01*
X115052778Y-71622991D01*
X115023448Y-71658729D01*
X114940186Y-71760186D01*
X114838729Y-71843448D01*
X114802991Y-71872778D01*
X114646466Y-71956443D01*
X114476627Y-72007963D01*
X114410443Y-72014481D01*
X114344260Y-72021000D01*
X114255740Y-72021000D01*
X114189557Y-72014481D01*
X114123373Y-72007963D01*
X113953534Y-71956443D01*
X113797009Y-71872778D01*
X113761271Y-71843448D01*
X113659814Y-71760186D01*
X113576552Y-71658729D01*
X113547222Y-71622991D01*
X113463557Y-71466466D01*
X113412037Y-71296627D01*
X113394641Y-71120000D01*
X113412037Y-70943373D01*
X113463557Y-70773534D01*
X113547222Y-70617009D01*
X113576552Y-70581271D01*
X113659814Y-70479814D01*
X113761271Y-70396552D01*
X113797009Y-70367222D01*
X113953534Y-70283557D01*
X114123373Y-70232037D01*
X114189558Y-70225518D01*
X114255740Y-70219000D01*
X114344260Y-70219000D01*
X114410442Y-70225518D01*
X114410442Y-70225518D01*
G37*
G36*
X170346823Y-70281313D02*
G01*
X170507242Y-70329976D01*
X170576922Y-70367221D01*
X170655078Y-70408996D01*
X170784659Y-70515341D01*
X170891004Y-70644922D01*
X170891005Y-70644924D01*
X170970024Y-70792758D01*
X171018687Y-70953177D01*
X171035117Y-71120000D01*
X171018687Y-71286823D01*
X170970024Y-71447242D01*
X170899114Y-71579906D01*
X170891004Y-71595078D01*
X170784659Y-71724659D01*
X170655078Y-71831004D01*
X170655076Y-71831005D01*
X170507242Y-71910024D01*
X170346823Y-71958687D01*
X170221804Y-71971000D01*
X170138196Y-71971000D01*
X170013177Y-71958687D01*
X169852758Y-71910024D01*
X169704924Y-71831005D01*
X169704922Y-71831004D01*
X169575341Y-71724659D01*
X169468996Y-71595078D01*
X169460886Y-71579906D01*
X169389976Y-71447242D01*
X169341313Y-71286823D01*
X169324883Y-71120000D01*
X169341313Y-70953177D01*
X169389976Y-70792758D01*
X169468995Y-70644924D01*
X169468996Y-70644922D01*
X169575341Y-70515341D01*
X169704922Y-70408996D01*
X169783078Y-70367221D01*
X169852758Y-70329976D01*
X170013177Y-70281313D01*
X170138196Y-70269000D01*
X170221804Y-70269000D01*
X170346823Y-70281313D01*
X170346823Y-70281313D01*
G37*
G36*
X130976823Y-70281313D02*
G01*
X131137242Y-70329976D01*
X131206922Y-70367221D01*
X131285078Y-70408996D01*
X131414659Y-70515341D01*
X131521004Y-70644922D01*
X131521005Y-70644924D01*
X131600024Y-70792758D01*
X131648687Y-70953177D01*
X131665117Y-71120000D01*
X131648687Y-71286823D01*
X131600024Y-71447242D01*
X131529114Y-71579906D01*
X131521004Y-71595078D01*
X131414659Y-71724659D01*
X131285078Y-71831004D01*
X131285076Y-71831005D01*
X131137242Y-71910024D01*
X130976823Y-71958687D01*
X130851804Y-71971000D01*
X130768196Y-71971000D01*
X130643177Y-71958687D01*
X130482758Y-71910024D01*
X130334924Y-71831005D01*
X130334922Y-71831004D01*
X130205341Y-71724659D01*
X130098996Y-71595078D01*
X130090886Y-71579906D01*
X130019976Y-71447242D01*
X129971313Y-71286823D01*
X129954883Y-71120000D01*
X129971313Y-70953177D01*
X130019976Y-70792758D01*
X130098995Y-70644924D01*
X130098996Y-70644922D01*
X130205341Y-70515341D01*
X130334922Y-70408996D01*
X130413078Y-70367221D01*
X130482758Y-70329976D01*
X130643177Y-70281313D01*
X130768196Y-70269000D01*
X130851804Y-70269000D01*
X130976823Y-70281313D01*
X130976823Y-70281313D01*
G37*
G36*
X138596823Y-70281313D02*
G01*
X138757242Y-70329976D01*
X138826922Y-70367221D01*
X138905078Y-70408996D01*
X139034659Y-70515341D01*
X139141004Y-70644922D01*
X139141005Y-70644924D01*
X139220024Y-70792758D01*
X139268687Y-70953177D01*
X139285117Y-71120000D01*
X139268687Y-71286823D01*
X139220024Y-71447242D01*
X139149114Y-71579906D01*
X139141004Y-71595078D01*
X139034659Y-71724659D01*
X138905078Y-71831004D01*
X138905076Y-71831005D01*
X138757242Y-71910024D01*
X138596823Y-71958687D01*
X138471804Y-71971000D01*
X138388196Y-71971000D01*
X138263177Y-71958687D01*
X138102758Y-71910024D01*
X137954924Y-71831005D01*
X137954922Y-71831004D01*
X137825341Y-71724659D01*
X137718996Y-71595078D01*
X137710886Y-71579906D01*
X137639976Y-71447242D01*
X137591313Y-71286823D01*
X137574883Y-71120000D01*
X137591313Y-70953177D01*
X137639976Y-70792758D01*
X137718995Y-70644924D01*
X137718996Y-70644922D01*
X137825341Y-70515341D01*
X137954922Y-70408996D01*
X138033078Y-70367221D01*
X138102758Y-70329976D01*
X138263177Y-70281313D01*
X138388196Y-70269000D01*
X138471804Y-70269000D01*
X138596823Y-70281313D01*
X138596823Y-70281313D01*
G37*
G36*
X162726823Y-70281313D02*
G01*
X162887242Y-70329976D01*
X162956922Y-70367221D01*
X163035078Y-70408996D01*
X163164659Y-70515341D01*
X163271004Y-70644922D01*
X163271005Y-70644924D01*
X163350024Y-70792758D01*
X163398687Y-70953177D01*
X163415117Y-71120000D01*
X163398687Y-71286823D01*
X163350024Y-71447242D01*
X163279114Y-71579906D01*
X163271004Y-71595078D01*
X163164659Y-71724659D01*
X163035078Y-71831004D01*
X163035076Y-71831005D01*
X162887242Y-71910024D01*
X162726823Y-71958687D01*
X162601804Y-71971000D01*
X162518196Y-71971000D01*
X162393177Y-71958687D01*
X162232758Y-71910024D01*
X162084924Y-71831005D01*
X162084922Y-71831004D01*
X161955341Y-71724659D01*
X161848996Y-71595078D01*
X161840886Y-71579906D01*
X161769976Y-71447242D01*
X161721313Y-71286823D01*
X161704883Y-71120000D01*
X161721313Y-70953177D01*
X161769976Y-70792758D01*
X161848995Y-70644924D01*
X161848996Y-70644922D01*
X161955341Y-70515341D01*
X162084922Y-70408996D01*
X162163078Y-70367221D01*
X162232758Y-70329976D01*
X162393177Y-70281313D01*
X162518196Y-70269000D01*
X162601804Y-70269000D01*
X162726823Y-70281313D01*
X162726823Y-70281313D01*
G37*
G36*
X176640443Y-68955519D02*
G01*
X176706627Y-68962037D01*
X176876466Y-69013557D01*
X177032991Y-69097222D01*
X177068729Y-69126552D01*
X177170186Y-69209814D01*
X177253448Y-69311271D01*
X177282778Y-69347009D01*
X177366443Y-69503534D01*
X177417963Y-69673373D01*
X177435359Y-69850000D01*
X177417963Y-70026627D01*
X177366443Y-70196466D01*
X177282778Y-70352991D01*
X177253448Y-70388729D01*
X177170186Y-70490186D01*
X177068729Y-70573448D01*
X177032991Y-70602778D01*
X176876466Y-70686443D01*
X176706627Y-70737963D01*
X176640443Y-70744481D01*
X176574260Y-70751000D01*
X176485740Y-70751000D01*
X176419557Y-70744481D01*
X176353373Y-70737963D01*
X176183534Y-70686443D01*
X176027009Y-70602778D01*
X175991271Y-70573448D01*
X175889814Y-70490186D01*
X175806552Y-70388729D01*
X175777222Y-70352991D01*
X175693557Y-70196466D01*
X175642037Y-70026627D01*
X175624641Y-69850000D01*
X175642037Y-69673373D01*
X175693557Y-69503534D01*
X175777222Y-69347009D01*
X175806552Y-69311271D01*
X175889814Y-69209814D01*
X175991271Y-69126552D01*
X176027009Y-69097222D01*
X176183534Y-69013557D01*
X176353373Y-68962037D01*
X176419557Y-68955519D01*
X176485740Y-68949000D01*
X176574260Y-68949000D01*
X176640443Y-68955519D01*
X176640443Y-68955519D01*
G37*
G36*
X114410443Y-67685519D02*
G01*
X114476627Y-67692037D01*
X114646466Y-67743557D01*
X114802991Y-67827222D01*
X114838729Y-67856552D01*
X114940186Y-67939814D01*
X115023448Y-68041271D01*
X115052778Y-68077009D01*
X115136443Y-68233534D01*
X115187963Y-68403373D01*
X115205359Y-68580000D01*
X115187963Y-68756627D01*
X115136443Y-68926466D01*
X115052778Y-69082991D01*
X115023448Y-69118729D01*
X114940186Y-69220186D01*
X114838729Y-69303448D01*
X114802991Y-69332778D01*
X114646466Y-69416443D01*
X114476627Y-69467963D01*
X114410442Y-69474482D01*
X114344260Y-69481000D01*
X114255740Y-69481000D01*
X114189558Y-69474482D01*
X114123373Y-69467963D01*
X113953534Y-69416443D01*
X113797009Y-69332778D01*
X113761271Y-69303448D01*
X113659814Y-69220186D01*
X113576552Y-69118729D01*
X113547222Y-69082991D01*
X113463557Y-68926466D01*
X113412037Y-68756627D01*
X113394641Y-68580000D01*
X113412037Y-68403373D01*
X113463557Y-68233534D01*
X113547222Y-68077009D01*
X113576552Y-68041271D01*
X113659814Y-67939814D01*
X113761271Y-67856552D01*
X113797009Y-67827222D01*
X113953534Y-67743557D01*
X114123373Y-67692037D01*
X114189557Y-67685519D01*
X114255740Y-67679000D01*
X114344260Y-67679000D01*
X114410443Y-67685519D01*
X114410443Y-67685519D01*
G37*
G36*
X116950443Y-67685519D02*
G01*
X117016627Y-67692037D01*
X117186466Y-67743557D01*
X117342991Y-67827222D01*
X117378729Y-67856552D01*
X117480186Y-67939814D01*
X117563448Y-68041271D01*
X117592778Y-68077009D01*
X117676443Y-68233534D01*
X117727963Y-68403373D01*
X117745359Y-68580000D01*
X117727963Y-68756627D01*
X117676443Y-68926466D01*
X117592778Y-69082991D01*
X117563448Y-69118729D01*
X117480186Y-69220186D01*
X117378729Y-69303448D01*
X117342991Y-69332778D01*
X117186466Y-69416443D01*
X117016627Y-69467963D01*
X116950442Y-69474482D01*
X116884260Y-69481000D01*
X116795740Y-69481000D01*
X116729558Y-69474482D01*
X116663373Y-69467963D01*
X116493534Y-69416443D01*
X116337009Y-69332778D01*
X116301271Y-69303448D01*
X116199814Y-69220186D01*
X116116552Y-69118729D01*
X116087222Y-69082991D01*
X116003557Y-68926466D01*
X115952037Y-68756627D01*
X115934641Y-68580000D01*
X115952037Y-68403373D01*
X116003557Y-68233534D01*
X116087222Y-68077009D01*
X116116552Y-68041271D01*
X116199814Y-67939814D01*
X116301271Y-67856552D01*
X116337009Y-67827222D01*
X116493534Y-67743557D01*
X116663373Y-67692037D01*
X116729557Y-67685519D01*
X116795740Y-67679000D01*
X116884260Y-67679000D01*
X116950443Y-67685519D01*
X116950443Y-67685519D01*
G37*
G36*
X176640443Y-66415519D02*
G01*
X176706627Y-66422037D01*
X176876466Y-66473557D01*
X177032991Y-66557222D01*
X177068729Y-66586552D01*
X177170186Y-66669814D01*
X177253448Y-66771271D01*
X177282778Y-66807009D01*
X177366443Y-66963534D01*
X177417963Y-67133373D01*
X177435359Y-67310000D01*
X177417963Y-67486627D01*
X177366443Y-67656466D01*
X177282778Y-67812991D01*
X177253448Y-67848729D01*
X177170186Y-67950186D01*
X177068729Y-68033448D01*
X177032991Y-68062778D01*
X176876466Y-68146443D01*
X176706627Y-68197963D01*
X176640443Y-68204481D01*
X176574260Y-68211000D01*
X176485740Y-68211000D01*
X176419557Y-68204481D01*
X176353373Y-68197963D01*
X176183534Y-68146443D01*
X176027009Y-68062778D01*
X175991271Y-68033448D01*
X175889814Y-67950186D01*
X175806552Y-67848729D01*
X175777222Y-67812991D01*
X175693557Y-67656466D01*
X175642037Y-67486627D01*
X175624641Y-67310000D01*
X175642037Y-67133373D01*
X175693557Y-66963534D01*
X175777222Y-66807009D01*
X175806552Y-66771271D01*
X175889814Y-66669814D01*
X175991271Y-66586552D01*
X176027009Y-66557222D01*
X176183534Y-66473557D01*
X176353373Y-66422037D01*
X176419557Y-66415519D01*
X176485740Y-66409000D01*
X176574260Y-66409000D01*
X176640443Y-66415519D01*
X176640443Y-66415519D01*
G37*
G36*
X114410442Y-65145518D02*
G01*
X114476627Y-65152037D01*
X114646466Y-65203557D01*
X114802991Y-65287222D01*
X114827764Y-65307553D01*
X114940186Y-65399814D01*
X115023448Y-65501271D01*
X115052778Y-65537009D01*
X115136443Y-65693534D01*
X115187963Y-65863373D01*
X115205359Y-66040000D01*
X115187963Y-66216627D01*
X115136443Y-66386466D01*
X115052778Y-66542991D01*
X115023448Y-66578729D01*
X114940186Y-66680186D01*
X114838729Y-66763448D01*
X114802991Y-66792778D01*
X114646466Y-66876443D01*
X114476627Y-66927963D01*
X114410442Y-66934482D01*
X114344260Y-66941000D01*
X114255740Y-66941000D01*
X114189558Y-66934482D01*
X114123373Y-66927963D01*
X113953534Y-66876443D01*
X113797009Y-66792778D01*
X113761271Y-66763448D01*
X113659814Y-66680186D01*
X113576552Y-66578729D01*
X113547222Y-66542991D01*
X113463557Y-66386466D01*
X113412037Y-66216627D01*
X113394641Y-66040000D01*
X113412037Y-65863373D01*
X113463557Y-65693534D01*
X113547222Y-65537009D01*
X113576552Y-65501271D01*
X113659814Y-65399814D01*
X113772236Y-65307553D01*
X113797009Y-65287222D01*
X113953534Y-65203557D01*
X114123373Y-65152037D01*
X114189558Y-65145518D01*
X114255740Y-65139000D01*
X114344260Y-65139000D01*
X114410442Y-65145518D01*
X114410442Y-65145518D01*
G37*
G36*
X116950442Y-65145518D02*
G01*
X117016627Y-65152037D01*
X117186466Y-65203557D01*
X117342991Y-65287222D01*
X117367764Y-65307553D01*
X117480186Y-65399814D01*
X117563448Y-65501271D01*
X117592778Y-65537009D01*
X117676443Y-65693534D01*
X117727963Y-65863373D01*
X117745359Y-66040000D01*
X117727963Y-66216627D01*
X117676443Y-66386466D01*
X117592778Y-66542991D01*
X117563448Y-66578729D01*
X117480186Y-66680186D01*
X117378729Y-66763448D01*
X117342991Y-66792778D01*
X117186466Y-66876443D01*
X117016627Y-66927963D01*
X116950442Y-66934482D01*
X116884260Y-66941000D01*
X116795740Y-66941000D01*
X116729558Y-66934482D01*
X116663373Y-66927963D01*
X116493534Y-66876443D01*
X116337009Y-66792778D01*
X116301271Y-66763448D01*
X116199814Y-66680186D01*
X116116552Y-66578729D01*
X116087222Y-66542991D01*
X116003557Y-66386466D01*
X115952037Y-66216627D01*
X115934641Y-66040000D01*
X115952037Y-65863373D01*
X116003557Y-65693534D01*
X116087222Y-65537009D01*
X116116552Y-65501271D01*
X116199814Y-65399814D01*
X116312236Y-65307553D01*
X116337009Y-65287222D01*
X116493534Y-65203557D01*
X116663373Y-65152037D01*
X116729558Y-65145518D01*
X116795740Y-65139000D01*
X116884260Y-65139000D01*
X116950442Y-65145518D01*
X116950442Y-65145518D01*
G37*
G36*
X127775256Y-62111298D02*
G01*
X127881579Y-62132447D01*
X128182042Y-62256903D01*
X128452451Y-62437585D01*
X128682415Y-62667549D01*
X128863097Y-62937958D01*
X128863098Y-62937960D01*
X128870512Y-62955859D01*
X128952392Y-63153534D01*
X128987553Y-63238422D01*
X129051000Y-63557389D01*
X129051000Y-63882611D01*
X129027055Y-64002989D01*
X128987553Y-64201579D01*
X128966345Y-64252779D01*
X128870512Y-64484142D01*
X128863097Y-64502042D01*
X128682415Y-64772451D01*
X128452451Y-65002415D01*
X128182042Y-65183097D01*
X127881579Y-65307553D01*
X127775256Y-65328702D01*
X127562611Y-65371000D01*
X127237389Y-65371000D01*
X127024744Y-65328702D01*
X126918421Y-65307553D01*
X126617958Y-65183097D01*
X126347549Y-65002415D01*
X126117585Y-64772451D01*
X125936903Y-64502042D01*
X125929489Y-64484142D01*
X125833655Y-64252779D01*
X125812447Y-64201579D01*
X125772945Y-64002989D01*
X125749000Y-63882611D01*
X125749000Y-63557389D01*
X125812447Y-63238422D01*
X125847609Y-63153534D01*
X125929488Y-62955859D01*
X125936902Y-62937960D01*
X125936903Y-62937958D01*
X126117585Y-62667549D01*
X126347549Y-62437585D01*
X126617958Y-62256903D01*
X126918421Y-62132447D01*
X127024744Y-62111298D01*
X127237389Y-62069000D01*
X127562611Y-62069000D01*
X127775256Y-62111298D01*
X127775256Y-62111298D01*
G37*
G36*
X165679294Y-62818633D02*
G01*
X165851695Y-62870931D01*
X166010583Y-62955858D01*
X166149849Y-63070151D01*
X166264142Y-63209417D01*
X166349069Y-63368305D01*
X166401367Y-63540706D01*
X166419025Y-63720000D01*
X166401367Y-63899294D01*
X166349069Y-64071695D01*
X166264142Y-64230583D01*
X166149849Y-64369849D01*
X166010583Y-64484142D01*
X165851695Y-64569069D01*
X165679294Y-64621367D01*
X165544931Y-64634600D01*
X165455069Y-64634600D01*
X165320706Y-64621367D01*
X165148305Y-64569069D01*
X164989417Y-64484142D01*
X164850151Y-64369849D01*
X164735858Y-64230583D01*
X164650931Y-64071695D01*
X164598633Y-63899294D01*
X164580975Y-63720000D01*
X164598633Y-63540706D01*
X164650931Y-63368305D01*
X164735858Y-63209417D01*
X164850151Y-63070151D01*
X164989417Y-62955858D01*
X165148305Y-62870931D01*
X165320706Y-62818633D01*
X165455069Y-62805400D01*
X165544931Y-62805400D01*
X165679294Y-62818633D01*
X165679294Y-62818633D01*
G37*
G36*
X163139294Y-62818633D02*
G01*
X163311695Y-62870931D01*
X163470583Y-62955858D01*
X163609849Y-63070151D01*
X163724142Y-63209417D01*
X163809069Y-63368305D01*
X163861367Y-63540706D01*
X163879025Y-63720000D01*
X163861367Y-63899294D01*
X163809069Y-64071695D01*
X163724142Y-64230583D01*
X163609849Y-64369849D01*
X163470583Y-64484142D01*
X163311695Y-64569069D01*
X163139294Y-64621367D01*
X163004931Y-64634600D01*
X162915069Y-64634600D01*
X162780706Y-64621367D01*
X162608305Y-64569069D01*
X162449417Y-64484142D01*
X162310151Y-64369849D01*
X162195858Y-64230583D01*
X162110931Y-64071695D01*
X162058633Y-63899294D01*
X162040975Y-63720000D01*
X162058633Y-63540706D01*
X162110931Y-63368305D01*
X162195858Y-63209417D01*
X162310151Y-63070151D01*
X162449417Y-62955858D01*
X162608305Y-62870931D01*
X162780706Y-62818633D01*
X162915069Y-62805400D01*
X163004931Y-62805400D01*
X163139294Y-62818633D01*
X163139294Y-62818633D01*
G37*
G36*
X168219294Y-62818633D02*
G01*
X168391695Y-62870931D01*
X168550583Y-62955858D01*
X168689849Y-63070151D01*
X168804142Y-63209417D01*
X168889069Y-63368305D01*
X168941367Y-63540706D01*
X168959025Y-63720000D01*
X168941367Y-63899294D01*
X168889069Y-64071695D01*
X168804142Y-64230583D01*
X168689849Y-64369849D01*
X168550583Y-64484142D01*
X168391695Y-64569069D01*
X168219294Y-64621367D01*
X168084931Y-64634600D01*
X167995069Y-64634600D01*
X167860706Y-64621367D01*
X167688305Y-64569069D01*
X167529417Y-64484142D01*
X167390151Y-64369849D01*
X167275858Y-64230583D01*
X167190931Y-64071695D01*
X167138633Y-63899294D01*
X167120975Y-63720000D01*
X167138633Y-63540706D01*
X167190931Y-63368305D01*
X167275858Y-63209417D01*
X167390151Y-63070151D01*
X167529417Y-62955858D01*
X167688305Y-62870931D01*
X167860706Y-62818633D01*
X167995069Y-62805400D01*
X168084931Y-62805400D01*
X168219294Y-62818633D01*
X168219294Y-62818633D01*
G37*
G36*
X160599294Y-62818633D02*
G01*
X160771695Y-62870931D01*
X160930583Y-62955858D01*
X161069849Y-63070151D01*
X161184142Y-63209417D01*
X161269069Y-63368305D01*
X161321367Y-63540706D01*
X161339025Y-63720000D01*
X161321367Y-63899294D01*
X161269069Y-64071695D01*
X161184142Y-64230583D01*
X161069849Y-64369849D01*
X160930583Y-64484142D01*
X160771695Y-64569069D01*
X160599294Y-64621367D01*
X160464931Y-64634600D01*
X160375069Y-64634600D01*
X160240706Y-64621367D01*
X160068305Y-64569069D01*
X159909417Y-64484142D01*
X159770151Y-64369849D01*
X159655858Y-64230583D01*
X159570931Y-64071695D01*
X159518633Y-63899294D01*
X159500975Y-63720000D01*
X159518633Y-63540706D01*
X159570931Y-63368305D01*
X159655858Y-63209417D01*
X159770151Y-63070151D01*
X159909417Y-62955858D01*
X160068305Y-62870931D01*
X160240706Y-62818633D01*
X160375069Y-62805400D01*
X160464931Y-62805400D01*
X160599294Y-62818633D01*
X160599294Y-62818633D01*
G37*
G36*
X170759294Y-62818633D02*
G01*
X170931695Y-62870931D01*
X171090583Y-62955858D01*
X171229849Y-63070151D01*
X171344142Y-63209417D01*
X171429069Y-63368305D01*
X171481367Y-63540706D01*
X171499025Y-63720000D01*
X171481367Y-63899294D01*
X171429069Y-64071695D01*
X171344142Y-64230583D01*
X171229849Y-64369849D01*
X171090583Y-64484142D01*
X170931695Y-64569069D01*
X170759294Y-64621367D01*
X170624931Y-64634600D01*
X170535069Y-64634600D01*
X170400706Y-64621367D01*
X170228305Y-64569069D01*
X170069417Y-64484142D01*
X169930151Y-64369849D01*
X169815858Y-64230583D01*
X169730931Y-64071695D01*
X169678633Y-63899294D01*
X169660975Y-63720000D01*
X169678633Y-63540706D01*
X169730931Y-63368305D01*
X169815858Y-63209417D01*
X169930151Y-63070151D01*
X170069417Y-62955858D01*
X170228305Y-62870931D01*
X170400706Y-62818633D01*
X170535069Y-62805400D01*
X170624931Y-62805400D01*
X170759294Y-62818633D01*
X170759294Y-62818633D01*
G37*
G36*
X158059294Y-62818633D02*
G01*
X158231695Y-62870931D01*
X158390583Y-62955858D01*
X158529849Y-63070151D01*
X158644142Y-63209417D01*
X158729069Y-63368305D01*
X158781367Y-63540706D01*
X158799025Y-63720000D01*
X158781367Y-63899294D01*
X158729069Y-64071695D01*
X158644142Y-64230583D01*
X158529849Y-64369849D01*
X158390583Y-64484142D01*
X158231695Y-64569069D01*
X158059294Y-64621367D01*
X157924931Y-64634600D01*
X157835069Y-64634600D01*
X157700706Y-64621367D01*
X157528305Y-64569069D01*
X157369417Y-64484142D01*
X157230151Y-64369849D01*
X157115858Y-64230583D01*
X157030931Y-64071695D01*
X156978633Y-63899294D01*
X156960975Y-63720000D01*
X156978633Y-63540706D01*
X157030931Y-63368305D01*
X157115858Y-63209417D01*
X157230151Y-63070151D01*
X157369417Y-62955858D01*
X157528305Y-62870931D01*
X157700706Y-62818633D01*
X157835069Y-62805400D01*
X157924931Y-62805400D01*
X158059294Y-62818633D01*
X158059294Y-62818633D01*
G37*
G36*
X173299294Y-62818633D02*
G01*
X173471695Y-62870931D01*
X173630583Y-62955858D01*
X173769849Y-63070151D01*
X173884142Y-63209417D01*
X173969069Y-63368305D01*
X174021367Y-63540706D01*
X174039025Y-63720000D01*
X174021367Y-63899294D01*
X173969069Y-64071695D01*
X173884142Y-64230583D01*
X173769849Y-64369849D01*
X173630583Y-64484142D01*
X173471695Y-64569069D01*
X173299294Y-64621367D01*
X173164931Y-64634600D01*
X173075069Y-64634600D01*
X172940706Y-64621367D01*
X172768305Y-64569069D01*
X172609417Y-64484142D01*
X172470151Y-64369849D01*
X172355858Y-64230583D01*
X172270931Y-64071695D01*
X172218633Y-63899294D01*
X172200975Y-63720000D01*
X172218633Y-63540706D01*
X172270931Y-63368305D01*
X172355858Y-63209417D01*
X172470151Y-63070151D01*
X172609417Y-62955858D01*
X172768305Y-62870931D01*
X172940706Y-62818633D01*
X173075069Y-62805400D01*
X173164931Y-62805400D01*
X173299294Y-62818633D01*
X173299294Y-62818633D01*
G37*
G36*
X153995294Y-62818633D02*
G01*
X154167695Y-62870931D01*
X154326583Y-62955858D01*
X154465849Y-63070151D01*
X154580142Y-63209417D01*
X154665069Y-63368305D01*
X154717367Y-63540706D01*
X154735025Y-63720000D01*
X154717367Y-63899294D01*
X154665069Y-64071695D01*
X154580142Y-64230583D01*
X154465849Y-64369849D01*
X154326583Y-64484142D01*
X154167695Y-64569069D01*
X153995294Y-64621367D01*
X153860931Y-64634600D01*
X153771069Y-64634600D01*
X153636706Y-64621367D01*
X153464305Y-64569069D01*
X153305417Y-64484142D01*
X153166151Y-64369849D01*
X153051858Y-64230583D01*
X152966931Y-64071695D01*
X152914633Y-63899294D01*
X152896975Y-63720000D01*
X152914633Y-63540706D01*
X152966931Y-63368305D01*
X153051858Y-63209417D01*
X153166151Y-63070151D01*
X153305417Y-62955858D01*
X153464305Y-62870931D01*
X153636706Y-62818633D01*
X153771069Y-62805400D01*
X153860931Y-62805400D01*
X153995294Y-62818633D01*
X153995294Y-62818633D01*
G37*
G36*
X175839294Y-62818633D02*
G01*
X176011695Y-62870931D01*
X176170583Y-62955858D01*
X176309849Y-63070151D01*
X176424142Y-63209417D01*
X176509069Y-63368305D01*
X176561367Y-63540706D01*
X176579025Y-63720000D01*
X176561367Y-63899294D01*
X176509069Y-64071695D01*
X176424142Y-64230583D01*
X176309849Y-64369849D01*
X176170583Y-64484142D01*
X176011695Y-64569069D01*
X175839294Y-64621367D01*
X175704931Y-64634600D01*
X175615069Y-64634600D01*
X175480706Y-64621367D01*
X175308305Y-64569069D01*
X175149417Y-64484142D01*
X175010151Y-64369849D01*
X174895858Y-64230583D01*
X174810931Y-64071695D01*
X174758633Y-63899294D01*
X174740975Y-63720000D01*
X174758633Y-63540706D01*
X174810931Y-63368305D01*
X174895858Y-63209417D01*
X175010151Y-63070151D01*
X175149417Y-62955858D01*
X175308305Y-62870931D01*
X175480706Y-62818633D01*
X175615069Y-62805400D01*
X175704931Y-62805400D01*
X175839294Y-62818633D01*
X175839294Y-62818633D01*
G37*
G36*
X151455294Y-62818633D02*
G01*
X151627695Y-62870931D01*
X151786583Y-62955858D01*
X151925849Y-63070151D01*
X152040142Y-63209417D01*
X152125069Y-63368305D01*
X152177367Y-63540706D01*
X152195025Y-63720000D01*
X152177367Y-63899294D01*
X152125069Y-64071695D01*
X152040142Y-64230583D01*
X151925849Y-64369849D01*
X151786583Y-64484142D01*
X151627695Y-64569069D01*
X151455294Y-64621367D01*
X151320931Y-64634600D01*
X151231069Y-64634600D01*
X151096706Y-64621367D01*
X150924305Y-64569069D01*
X150765417Y-64484142D01*
X150626151Y-64369849D01*
X150511858Y-64230583D01*
X150426931Y-64071695D01*
X150374633Y-63899294D01*
X150356975Y-63720000D01*
X150374633Y-63540706D01*
X150426931Y-63368305D01*
X150511858Y-63209417D01*
X150626151Y-63070151D01*
X150765417Y-62955858D01*
X150924305Y-62870931D01*
X151096706Y-62818633D01*
X151231069Y-62805400D01*
X151320931Y-62805400D01*
X151455294Y-62818633D01*
X151455294Y-62818633D01*
G37*
G36*
X148915294Y-62818633D02*
G01*
X149087695Y-62870931D01*
X149246583Y-62955858D01*
X149385849Y-63070151D01*
X149500142Y-63209417D01*
X149585069Y-63368305D01*
X149637367Y-63540706D01*
X149655025Y-63720000D01*
X149637367Y-63899294D01*
X149585069Y-64071695D01*
X149500142Y-64230583D01*
X149385849Y-64369849D01*
X149246583Y-64484142D01*
X149087695Y-64569069D01*
X148915294Y-64621367D01*
X148780931Y-64634600D01*
X148691069Y-64634600D01*
X148556706Y-64621367D01*
X148384305Y-64569069D01*
X148225417Y-64484142D01*
X148086151Y-64369849D01*
X147971858Y-64230583D01*
X147886931Y-64071695D01*
X147834633Y-63899294D01*
X147816975Y-63720000D01*
X147834633Y-63540706D01*
X147886931Y-63368305D01*
X147971858Y-63209417D01*
X148086151Y-63070151D01*
X148225417Y-62955858D01*
X148384305Y-62870931D01*
X148556706Y-62818633D01*
X148691069Y-62805400D01*
X148780931Y-62805400D01*
X148915294Y-62818633D01*
X148915294Y-62818633D01*
G37*
G36*
X146375294Y-62818633D02*
G01*
X146547695Y-62870931D01*
X146706583Y-62955858D01*
X146845849Y-63070151D01*
X146960142Y-63209417D01*
X147045069Y-63368305D01*
X147097367Y-63540706D01*
X147115025Y-63720000D01*
X147097367Y-63899294D01*
X147045069Y-64071695D01*
X146960142Y-64230583D01*
X146845849Y-64369849D01*
X146706583Y-64484142D01*
X146547695Y-64569069D01*
X146375294Y-64621367D01*
X146240931Y-64634600D01*
X146151069Y-64634600D01*
X146016706Y-64621367D01*
X145844305Y-64569069D01*
X145685417Y-64484142D01*
X145546151Y-64369849D01*
X145431858Y-64230583D01*
X145346931Y-64071695D01*
X145294633Y-63899294D01*
X145276975Y-63720000D01*
X145294633Y-63540706D01*
X145346931Y-63368305D01*
X145431858Y-63209417D01*
X145546151Y-63070151D01*
X145685417Y-62955858D01*
X145844305Y-62870931D01*
X146016706Y-62818633D01*
X146151069Y-62805400D01*
X146240931Y-62805400D01*
X146375294Y-62818633D01*
X146375294Y-62818633D01*
G37*
G36*
X143835294Y-62818633D02*
G01*
X144007695Y-62870931D01*
X144166583Y-62955858D01*
X144305849Y-63070151D01*
X144420142Y-63209417D01*
X144505069Y-63368305D01*
X144557367Y-63540706D01*
X144575025Y-63720000D01*
X144557367Y-63899294D01*
X144505069Y-64071695D01*
X144420142Y-64230583D01*
X144305849Y-64369849D01*
X144166583Y-64484142D01*
X144007695Y-64569069D01*
X143835294Y-64621367D01*
X143700931Y-64634600D01*
X143611069Y-64634600D01*
X143476706Y-64621367D01*
X143304305Y-64569069D01*
X143145417Y-64484142D01*
X143006151Y-64369849D01*
X142891858Y-64230583D01*
X142806931Y-64071695D01*
X142754633Y-63899294D01*
X142736975Y-63720000D01*
X142754633Y-63540706D01*
X142806931Y-63368305D01*
X142891858Y-63209417D01*
X143006151Y-63070151D01*
X143145417Y-62955858D01*
X143304305Y-62870931D01*
X143476706Y-62818633D01*
X143611069Y-62805400D01*
X143700931Y-62805400D01*
X143835294Y-62818633D01*
X143835294Y-62818633D01*
G37*
G36*
X141295294Y-62818633D02*
G01*
X141467695Y-62870931D01*
X141626583Y-62955858D01*
X141765849Y-63070151D01*
X141880142Y-63209417D01*
X141965069Y-63368305D01*
X142017367Y-63540706D01*
X142035025Y-63720000D01*
X142017367Y-63899294D01*
X141965069Y-64071695D01*
X141880142Y-64230583D01*
X141765849Y-64369849D01*
X141626583Y-64484142D01*
X141467695Y-64569069D01*
X141295294Y-64621367D01*
X141160931Y-64634600D01*
X141071069Y-64634600D01*
X140936706Y-64621367D01*
X140764305Y-64569069D01*
X140605417Y-64484142D01*
X140466151Y-64369849D01*
X140351858Y-64230583D01*
X140266931Y-64071695D01*
X140214633Y-63899294D01*
X140196975Y-63720000D01*
X140214633Y-63540706D01*
X140266931Y-63368305D01*
X140351858Y-63209417D01*
X140466151Y-63070151D01*
X140605417Y-62955858D01*
X140764305Y-62870931D01*
X140936706Y-62818633D01*
X141071069Y-62805400D01*
X141160931Y-62805400D01*
X141295294Y-62818633D01*
X141295294Y-62818633D01*
G37*
G36*
X138755294Y-62818633D02*
G01*
X138927695Y-62870931D01*
X139086583Y-62955858D01*
X139225849Y-63070151D01*
X139340142Y-63209417D01*
X139425069Y-63368305D01*
X139477367Y-63540706D01*
X139495025Y-63720000D01*
X139477367Y-63899294D01*
X139425069Y-64071695D01*
X139340142Y-64230583D01*
X139225849Y-64369849D01*
X139086583Y-64484142D01*
X138927695Y-64569069D01*
X138755294Y-64621367D01*
X138620931Y-64634600D01*
X138531069Y-64634600D01*
X138396706Y-64621367D01*
X138224305Y-64569069D01*
X138065417Y-64484142D01*
X137926151Y-64369849D01*
X137811858Y-64230583D01*
X137726931Y-64071695D01*
X137674633Y-63899294D01*
X137656975Y-63720000D01*
X137674633Y-63540706D01*
X137726931Y-63368305D01*
X137811858Y-63209417D01*
X137926151Y-63070151D01*
X138065417Y-62955858D01*
X138224305Y-62870931D01*
X138396706Y-62818633D01*
X138531069Y-62805400D01*
X138620931Y-62805400D01*
X138755294Y-62818633D01*
X138755294Y-62818633D01*
G37*
G36*
X136215294Y-62818633D02*
G01*
X136387695Y-62870931D01*
X136546583Y-62955858D01*
X136685849Y-63070151D01*
X136800142Y-63209417D01*
X136885069Y-63368305D01*
X136937367Y-63540706D01*
X136955025Y-63720000D01*
X136937367Y-63899294D01*
X136885069Y-64071695D01*
X136800142Y-64230583D01*
X136685849Y-64369849D01*
X136546583Y-64484142D01*
X136387695Y-64569069D01*
X136215294Y-64621367D01*
X136080931Y-64634600D01*
X135991069Y-64634600D01*
X135856706Y-64621367D01*
X135684305Y-64569069D01*
X135525417Y-64484142D01*
X135386151Y-64369849D01*
X135271858Y-64230583D01*
X135186931Y-64071695D01*
X135134633Y-63899294D01*
X135116975Y-63720000D01*
X135134633Y-63540706D01*
X135186931Y-63368305D01*
X135271858Y-63209417D01*
X135386151Y-63070151D01*
X135525417Y-62955858D01*
X135684305Y-62870931D01*
X135856706Y-62818633D01*
X135991069Y-62805400D01*
X136080931Y-62805400D01*
X136215294Y-62818633D01*
X136215294Y-62818633D01*
G37*
G36*
X133675294Y-62818633D02*
G01*
X133847695Y-62870931D01*
X134006583Y-62955858D01*
X134145849Y-63070151D01*
X134260142Y-63209417D01*
X134345069Y-63368305D01*
X134397367Y-63540706D01*
X134415025Y-63720000D01*
X134397367Y-63899294D01*
X134345069Y-64071695D01*
X134260142Y-64230583D01*
X134145849Y-64369849D01*
X134006583Y-64484142D01*
X133847695Y-64569069D01*
X133675294Y-64621367D01*
X133540931Y-64634600D01*
X133451069Y-64634600D01*
X133316706Y-64621367D01*
X133144305Y-64569069D01*
X132985417Y-64484142D01*
X132846151Y-64369849D01*
X132731858Y-64230583D01*
X132646931Y-64071695D01*
X132594633Y-63899294D01*
X132576975Y-63720000D01*
X132594633Y-63540706D01*
X132646931Y-63368305D01*
X132731858Y-63209417D01*
X132846151Y-63070151D01*
X132985417Y-62955858D01*
X133144305Y-62870931D01*
X133316706Y-62818633D01*
X133451069Y-62805400D01*
X133540931Y-62805400D01*
X133675294Y-62818633D01*
X133675294Y-62818633D01*
G37*
G36*
X131135294Y-62818633D02*
G01*
X131307695Y-62870931D01*
X131466583Y-62955858D01*
X131605849Y-63070151D01*
X131720142Y-63209417D01*
X131805069Y-63368305D01*
X131857367Y-63540706D01*
X131875025Y-63720000D01*
X131857367Y-63899294D01*
X131805069Y-64071695D01*
X131720142Y-64230583D01*
X131605849Y-64369849D01*
X131466583Y-64484142D01*
X131307695Y-64569069D01*
X131135294Y-64621367D01*
X131000931Y-64634600D01*
X130911069Y-64634600D01*
X130776706Y-64621367D01*
X130604305Y-64569069D01*
X130445417Y-64484142D01*
X130306151Y-64369849D01*
X130191858Y-64230583D01*
X130106931Y-64071695D01*
X130054633Y-63899294D01*
X130036975Y-63720000D01*
X130054633Y-63540706D01*
X130106931Y-63368305D01*
X130191858Y-63209417D01*
X130306151Y-63070151D01*
X130445417Y-62955858D01*
X130604305Y-62870931D01*
X130776706Y-62818633D01*
X130911069Y-62805400D01*
X131000931Y-62805400D01*
X131135294Y-62818633D01*
X131135294Y-62818633D01*
G37*
G36*
X117741000Y-64401000D02*
G01*
X115939000Y-64401000D01*
X115939000Y-62599000D01*
X117741000Y-62599000D01*
X117741000Y-64401000D01*
X117741000Y-64401000D01*
G37*
G36*
X114410442Y-62605518D02*
G01*
X114476627Y-62612037D01*
X114646466Y-62663557D01*
X114646468Y-62663558D01*
X114653938Y-62667551D01*
X114802991Y-62747222D01*
X114838729Y-62776552D01*
X114940186Y-62859814D01*
X115019006Y-62955858D01*
X115052778Y-62997009D01*
X115136443Y-63153534D01*
X115187963Y-63323373D01*
X115205359Y-63500000D01*
X115187963Y-63676627D01*
X115136443Y-63846466D01*
X115052778Y-64002991D01*
X115023448Y-64038729D01*
X114940186Y-64140186D01*
X114865377Y-64201579D01*
X114802991Y-64252778D01*
X114646466Y-64336443D01*
X114476627Y-64387963D01*
X114410442Y-64394482D01*
X114344260Y-64401000D01*
X114255740Y-64401000D01*
X114189558Y-64394482D01*
X114123373Y-64387963D01*
X113953534Y-64336443D01*
X113797009Y-64252778D01*
X113734623Y-64201579D01*
X113659814Y-64140186D01*
X113576552Y-64038729D01*
X113547222Y-64002991D01*
X113463557Y-63846466D01*
X113412037Y-63676627D01*
X113394641Y-63500000D01*
X113412037Y-63323373D01*
X113463557Y-63153534D01*
X113547222Y-62997009D01*
X113580994Y-62955858D01*
X113659814Y-62859814D01*
X113761271Y-62776552D01*
X113797009Y-62747222D01*
X113946062Y-62667551D01*
X113953532Y-62663558D01*
X113953534Y-62663557D01*
X114123373Y-62612037D01*
X114189558Y-62605518D01*
X114255740Y-62599000D01*
X114344260Y-62599000D01*
X114410442Y-62605518D01*
X114410442Y-62605518D01*
G37*
M02*
