G04 #@! TF.GenerationSoftware,KiCad,Pcbnew,(5.1.4-0-10_14)*
G04 #@! TF.CreationDate,2019-10-20T20:35:26-03:00*
G04 #@! TF.ProjectId,shield,73686965-6c64-42e6-9b69-6361645f7063,rev?*
G04 #@! TF.SameCoordinates,Original*
G04 #@! TF.FileFunction,Copper,L2,Bot*
G04 #@! TF.FilePolarity,Positive*
%FSLAX46Y46*%
G04 Gerber Fmt 4.6, Leading zero omitted, Abs format (unit mm)*
G04 Created by KiCad (PCBNEW (5.1.4-0-10_14)) date 2019-10-20 20:35:26*
%MOMM*%
%LPD*%
G04 APERTURE LIST*
%ADD10O,1.600000X1.600000*%
%ADD11R,1.600000X1.600000*%
%ADD12O,1.727200X1.727200*%
%ADD13O,1.700000X1.700000*%
%ADD14R,1.700000X1.700000*%
%ADD15C,1.500000*%
%ADD16C,1.400000*%
%ADD17O,1.400000X1.400000*%
%ADD18C,1.600000*%
%ADD19C,0.250000*%
G04 APERTURE END LIST*
D10*
X162560000Y-86360000D03*
X170180000Y-71120000D03*
X162560000Y-83820000D03*
X170180000Y-73660000D03*
X162560000Y-81280000D03*
X170180000Y-76200000D03*
X162560000Y-78740000D03*
X170180000Y-78740000D03*
X162560000Y-76200000D03*
X170180000Y-81280000D03*
X162560000Y-73660000D03*
X170180000Y-83820000D03*
X162560000Y-71120000D03*
D11*
X170180000Y-86360000D03*
D12*
X175787000Y-84040000D03*
X175660000Y-111980000D03*
X173120000Y-111980000D03*
X170580000Y-111980000D03*
X168040000Y-111980000D03*
X165500000Y-111980000D03*
X140100000Y-111980000D03*
X146196000Y-63720000D03*
X143656000Y-63720000D03*
X141116000Y-63720000D03*
X136036000Y-63720000D03*
X133496000Y-63720000D03*
X130956000Y-63720000D03*
X148736000Y-63720000D03*
X151276000Y-63720000D03*
X153816000Y-63720000D03*
X138576000Y-63720000D03*
X157880000Y-63720000D03*
X160420000Y-63720000D03*
X162960000Y-63720000D03*
X165500000Y-63720000D03*
X168040000Y-63720000D03*
X170580000Y-63720000D03*
X173120000Y-63720000D03*
X175660000Y-63720000D03*
X142640000Y-111980000D03*
X145180000Y-111980000D03*
X147720000Y-111980000D03*
X150260000Y-111980000D03*
X152800000Y-111980000D03*
X155340000Y-111980000D03*
X157880000Y-111980000D03*
X162960000Y-111980000D03*
X178327000Y-84040000D03*
X175787000Y-86580000D03*
X178327000Y-86580000D03*
X178327000Y-89120000D03*
X175787000Y-89120000D03*
D13*
X151130000Y-86360000D03*
X151130000Y-83820000D03*
X151130000Y-81280000D03*
D14*
X151130000Y-78740000D03*
D13*
X118110000Y-86360000D03*
X118110000Y-83820000D03*
X118110000Y-81280000D03*
D14*
X118110000Y-78740000D03*
D13*
X176530000Y-67310000D03*
X176530000Y-69850000D03*
D14*
X176530000Y-72390000D03*
D10*
X130810000Y-86360000D03*
X138430000Y-71120000D03*
X130810000Y-83820000D03*
X138430000Y-73660000D03*
X130810000Y-81280000D03*
X138430000Y-76200000D03*
X130810000Y-78740000D03*
X138430000Y-78740000D03*
X130810000Y-76200000D03*
X138430000Y-81280000D03*
X130810000Y-73660000D03*
X138430000Y-83820000D03*
X130810000Y-71120000D03*
D11*
X138430000Y-86360000D03*
D15*
X163830000Y-100330000D03*
X168710000Y-100330000D03*
X132080000Y-100330000D03*
X136960000Y-100330000D03*
D13*
X114300000Y-71120000D03*
X116840000Y-71120000D03*
X114300000Y-68580000D03*
X116840000Y-68580000D03*
X114300000Y-66040000D03*
X116840000Y-66040000D03*
X114300000Y-63500000D03*
D14*
X116840000Y-63500000D03*
D16*
X162560000Y-93980000D03*
D17*
X170180000Y-93980000D03*
D16*
X130810000Y-93980000D03*
D17*
X138430000Y-93980000D03*
D18*
X171450000Y-106680000D03*
X168950000Y-106680000D03*
X163830000Y-106680000D03*
X161330000Y-106680000D03*
X139700000Y-106680000D03*
X137200000Y-106680000D03*
X132080000Y-106680000D03*
X129580000Y-106680000D03*
D19*
X138900001Y-107479999D02*
X139700000Y-106680000D01*
X138574999Y-107805001D02*
X138900001Y-107479999D01*
X130705001Y-107805001D02*
X138574999Y-107805001D01*
X129580000Y-106680000D02*
X130705001Y-107805001D01*
X147500000Y-106680000D02*
X152800000Y-111980000D01*
X139700000Y-106680000D02*
X147500000Y-106680000D01*
X160640000Y-106680000D02*
X161330000Y-106680000D01*
X155340000Y-111980000D02*
X160640000Y-106680000D01*
X168910000Y-109220000D02*
X170650001Y-107479999D01*
X170650001Y-107479999D02*
X171450000Y-106680000D01*
X163870000Y-109220000D02*
X168910000Y-109220000D01*
X161330000Y-106680000D02*
X163870000Y-109220000D01*
X128780001Y-105880001D02*
X129580000Y-106680000D01*
X114300000Y-91400000D02*
X128780001Y-105880001D01*
X114300000Y-87630000D02*
X114300000Y-91400000D01*
X118110000Y-83820000D02*
X114300000Y-87630000D01*
X114300000Y-80010000D02*
X118110000Y-83820000D01*
X114300000Y-71120000D02*
X114300000Y-80010000D01*
X137712401Y-64583599D02*
X138576000Y-63720000D01*
X136854989Y-65441011D02*
X137712401Y-64583599D01*
X136854989Y-79704989D02*
X136854989Y-65441011D01*
X138430000Y-81280000D02*
X136854989Y-79704989D01*
X175680001Y-68159999D02*
X176530000Y-67310000D01*
X172205020Y-79254980D02*
X172205020Y-71634980D01*
X172205020Y-71634980D02*
X175680001Y-68159999D01*
X170180000Y-81280000D02*
X172205020Y-79254980D01*
X151979999Y-82970001D02*
X151130000Y-83820000D01*
X168910000Y-82550000D02*
X152400000Y-82550000D01*
X152400000Y-82550000D02*
X151979999Y-82970001D01*
X170180000Y-81280000D02*
X168910000Y-82550000D01*
X137304999Y-82405001D02*
X137630001Y-82079999D01*
X129684999Y-83279999D02*
X130559997Y-82405001D01*
X129684999Y-84360001D02*
X129684999Y-83279999D01*
X130559997Y-82405001D02*
X137304999Y-82405001D01*
X131298591Y-84945001D02*
X130269999Y-84945001D01*
X133838591Y-87485001D02*
X131298591Y-84945001D01*
X130269999Y-84945001D02*
X129684999Y-84360001D01*
X147464999Y-87485001D02*
X133838591Y-87485001D01*
X137630001Y-82079999D02*
X138430000Y-81280000D01*
X151130000Y-83820000D02*
X147464999Y-87485001D01*
X130810000Y-99060000D02*
X132080000Y-100330000D01*
X130810000Y-93980000D02*
X130810000Y-99060000D01*
X132080000Y-100330000D02*
X132080000Y-106680000D01*
X138430000Y-98860000D02*
X136960000Y-100330000D01*
X138430000Y-93980000D02*
X138430000Y-98860000D01*
X136960000Y-106440000D02*
X137200000Y-106680000D01*
X136960000Y-100330000D02*
X136960000Y-106440000D01*
X163830000Y-106680000D02*
X163830000Y-100330000D01*
X162560000Y-99060000D02*
X163830000Y-100330000D01*
X162560000Y-93980000D02*
X162560000Y-99060000D01*
X170180000Y-98860000D02*
X168710000Y-100330000D01*
X170180000Y-93980000D02*
X170180000Y-98860000D01*
X168710000Y-106440000D02*
X168950000Y-106680000D01*
X168710000Y-100330000D02*
X168710000Y-106440000D01*
X157016401Y-112843599D02*
X157880000Y-111980000D01*
X156691399Y-113168601D02*
X157016401Y-112843599D01*
X154769471Y-113168601D02*
X156691399Y-113168601D01*
X154151399Y-112550529D02*
X154769471Y-113168601D01*
X154151399Y-94768601D02*
X154151399Y-112550529D01*
X162560000Y-86360000D02*
X154151399Y-94768601D01*
X132385011Y-87935011D02*
X147317809Y-87935011D01*
X130810000Y-86360000D02*
X132385011Y-87935011D01*
X130010001Y-85560001D02*
X130810000Y-86360000D01*
X116934999Y-81844001D02*
X117735997Y-82644999D01*
X116934999Y-80715999D02*
X116934999Y-81844001D01*
X117735997Y-82644999D02*
X127094999Y-82644999D01*
X117545999Y-80104999D02*
X116934999Y-80715999D01*
X127094999Y-82644999D02*
X130010001Y-85560001D01*
X131110003Y-80104999D02*
X117545999Y-80104999D01*
X131935001Y-79280001D02*
X131110003Y-80104999D01*
X131935001Y-78199999D02*
X131935001Y-79280001D01*
X131350001Y-77614999D02*
X131935001Y-78199999D01*
X123334999Y-77614999D02*
X131350001Y-77614999D01*
X116840000Y-71120000D02*
X123334999Y-77614999D01*
X118110000Y-86360000D02*
X130810000Y-86360000D01*
X151130000Y-88900000D02*
X149706399Y-90323601D01*
X151130000Y-86360000D02*
X151130000Y-88900000D01*
X149706399Y-90323601D02*
X154151399Y-94768601D01*
X147317809Y-87935011D02*
X149706399Y-90323601D01*
X145830000Y-63720000D02*
X146196000Y-63720000D01*
X151056000Y-68580000D02*
X146196000Y-63720000D01*
X167640000Y-68580000D02*
X151056000Y-68580000D01*
X170180000Y-71120000D02*
X167640000Y-68580000D01*
X170979999Y-71919999D02*
X170180000Y-71120000D01*
X171305001Y-76740001D02*
X171305001Y-72245001D01*
X170720001Y-77325001D02*
X171305001Y-76740001D01*
X137889999Y-77325001D02*
X170720001Y-77325001D01*
X171305001Y-72245001D02*
X170979999Y-71919999D01*
X137304999Y-76740001D02*
X137889999Y-77325001D01*
X137304999Y-72245001D02*
X137304999Y-76740001D01*
X138430000Y-71120000D02*
X137304999Y-72245001D01*
X171755010Y-78829992D02*
X171755010Y-71030008D01*
X170670001Y-79915001D02*
X171755010Y-78829992D01*
X144000001Y-79915001D02*
X170670001Y-79915001D01*
X138680003Y-85234999D02*
X144000001Y-79915001D01*
X132224999Y-85234999D02*
X138680003Y-85234999D01*
X130810000Y-83820000D02*
X132224999Y-85234999D01*
X149599599Y-64583599D02*
X148736000Y-63720000D01*
X153145990Y-68129990D02*
X149599599Y-64583599D01*
X168854992Y-68129990D02*
X153145990Y-68129990D01*
X171755010Y-71030008D02*
X168854992Y-68129990D01*
X144519599Y-64583599D02*
X143656000Y-63720000D01*
X149930999Y-69994999D02*
X144519599Y-64583599D01*
X166514999Y-69994999D02*
X149930999Y-69994999D01*
X170180000Y-73660000D02*
X166514999Y-69994999D01*
X142792401Y-62856401D02*
X143656000Y-63720000D01*
X140545471Y-62531399D02*
X142467399Y-62531399D01*
X139764601Y-63312269D02*
X140545471Y-62531399D01*
X142467399Y-62531399D02*
X142792401Y-62856401D01*
X139764601Y-72325399D02*
X139764601Y-63312269D01*
X138430000Y-73660000D02*
X139764601Y-72325399D01*
X118110000Y-81280000D02*
X130810000Y-81280000D01*
X141979599Y-64583599D02*
X141116000Y-63720000D01*
X152181001Y-74785001D02*
X141979599Y-64583599D01*
X168765001Y-74785001D02*
X152181001Y-74785001D01*
X170180000Y-76200000D02*
X168765001Y-74785001D01*
X141116000Y-73514000D02*
X141116000Y-63720000D01*
X138430000Y-76200000D02*
X141116000Y-73514000D01*
X118110000Y-78740000D02*
X130810000Y-78740000D01*
X151130000Y-81280000D02*
X162560000Y-81280000D01*
X151130000Y-78740000D02*
X162560000Y-78740000D01*
X163574999Y-61794999D02*
X164636401Y-62856401D01*
X164636401Y-62856401D02*
X165500000Y-63720000D01*
X116005001Y-61794999D02*
X163574999Y-61794999D01*
X114300000Y-63500000D02*
X116005001Y-61794999D01*
M02*
